<svg width="100" height="100" viewBox="0 0 100 100" fill="none" xmlns="http://www.w3.org/2000/svg">
<rect width="100" height="100" rx="20" fill="#F5EBE6"/>
<g clip-path="url(#clip0_17_5)">
<path d="M72.5 10H37.5C35.2829 10.0018 33.1291 10.7391 31.376 12.0964C29.6229 13.4536 28.3696 15.3541 27.8125 17.5H63.4375C66.5041 17.5 69.445 18.7182 71.6134 20.8866C73.7818 23.055 75 25.9959 75 29.0625V76.7016L78.4375 79.4516C78.8636 79.7927 79.3896 79.985 79.9353 79.9991C80.4809 80.0132 81.0162 79.8483 81.4594 79.5297C81.7868 79.2879 82.052 78.9716 82.2329 78.6069C82.4139 78.2423 82.5054 77.8398 82.5 77.4328V20C82.5 17.3478 81.4464 14.8043 79.5711 12.9289C77.6957 11.0536 75.1522 10 72.5 10V10Z" fill="#CE6857"/>
<path d="M60 22.5H27.5C24.8478 22.5 22.3043 23.5536 20.4289 25.4289C18.5536 27.3043 17.5 29.8478 17.5 32.5V87.4406C17.4938 87.8459 17.5841 88.2468 17.7634 88.6103C17.9427 88.9738 18.2059 89.2895 18.5312 89.5312C18.9832 89.8594 19.532 90.0268 20.0902 90.0067C20.6484 89.9866 21.1838 89.7802 21.6109 89.4203L43.75 70.7688L65.8891 89.4125C66.3134 89.77 66.8447 89.9762 67.3992 89.9986C67.9536 90.0209 68.4998 89.8582 68.9516 89.5359C69.281 89.2947 69.548 88.9783 69.7304 88.613C69.9127 88.2478 70.0052 87.8442 70 87.4359V32.5C70 29.8478 68.9464 27.3043 67.0711 25.4289C65.1957 23.5536 62.6522 22.5 60 22.5Z" fill="#CE6857"/>
</g>
<defs>
<clipPath id="clip0_17_5">
<rect width="80" height="80" fill="white" transform="translate(10 10)"/>
</clipPath>
</defs>
</svg>
