<svg xmlns="http://www.w3.org/2000/svg" fill="#fff" height="1000" width="1000" xmlns:v="https://vecta.io/nano"><path d="M917.9 857.9l-85.2-222.5c-2.9-7.7-7.4-12.8-14.2-16.5-40.2-22.2-82.9-38.4-126.8-50.9-29-8.2-39.2-2.4-55.5 23.1-17.6 27.5-36.8 53.9-52.3 82.4-14.9 27.6-33.1 42.3-66.2 36.8-12.3-2-20-4.7-26.6-15.7-23.7-38.3-48.7-75.8-72.8-113.9-6.3-10-13.3-14.4-25.7-14.4-38.4-.1-71.1 18.4-105.4 31.2-19.7 7.4-39.7 15.2-57.8 32 20.7 6.7 33.3 19.9 36 40.3 2 15.8 13.2 26.7 18.6 40.6 2.3 5.9 6.6 6 12.3 4.4 21.4-6.4 41-.4 59.2 10.3l271.3 161.1c11.6 6.9 21.5 15.4 26.2 28.4 2.7 7.7 7.4 8.3 14.4 7.5 81.6-9.1 162.3-22.4 241.1-46.2 10.7-3.4 13.7-6.7 9.4-18zm-573-514.2c16.8-1.1 36.4-5.1 50.1 1.7 40 19.7 82.1 21 124.5 22 42 1 84.5 1.2 124.4-13.1 17.9-6.4 34.7-11.3 53.7-11 41.9.6 45.2-3.9 39.2-46.3l-.2-1.8c-.8-6.3-3.8-11.4-10.5-10.8-11.1 1.1-11.3-5.4-11.9-13.7-4.6-58-27.9-107.2-71.1-146.7-15.7-14.4-38.7-20.8-46.4-44-1.1-3.2-5.6-7.7-10.7-5.3-4.1 1.9-2.4 6.6-2.7 10.1l-7.8 91.7c-.8 10.8-2.8 21.8-15.5 21.6-15.1-.2-14.1-13-13.7-23.8 1.1-31.3 1.3-62.7 3.7-93.9 1.4-19.6-11.3-14.6-21.7-15.4-11.3-.8-18.7 0-17.9 15.4 2 33.8 1.9 67.6 2.7 101.4.2 8.2-2.1 15.6-11.7 16.2-9.7.6-15-5.3-15.8-14.7l-3.9-43.1-6.2-67.7c-14.1 8.4-14.7 8.2-19.3 19.3-2.3 5.7-5.6 9.1-10.6 12.3-62.4 38.3-93.5 95.5-99.1 167.4-.6 8-1.1 13.4-11 12.8-9-.6-11.8 5.3-11.7 13.3.1 8.1.6 16.4-.2 24.4-1.4 15.8 4.3 22.8 21.3 21.7zm237.5-46.9l19.8-157.7c49.3 36.3 71.2 81.6 75.3 137 .6 8.9-3.9 12.1-11.1 14.3-24.6 7.5-49.7 11.6-75.3 14.1-6.6.5-9.6-.6-8.7-7.7zM459 142.5l19.3 152c1.1 8.2-1.3 10.8-10.2 9.7-24.2-2.9-48.3-6-71.6-13.5-5.6-1.8-11.9-2.5-12.6-11.1-3.4-42.7 30.4-117.6 75.1-137.1zm153.1 777.4c-2.5-1.9-5.3-3.3-8-5L351.4 763c-40.3-22.8-46.9-20.5-65.3 20.8-5.8 12.9-5.7 19 10 23.4 35.5 9.9 70.4 21.8 105.6 33 6.4 2 15.8 3.6 13.9 11.9-2.5 10.7-11.5 6.1-18.6 3.9l-113.1-34c-17.4-4.7-24.8-16-27.3-31.7-1.5-9.1-.9-18.7-.3-28.1 1.1-18-1.3-35.5-11.9-50.1-8.1-11.1-17.2-20.4-15-36.1 1.2-8.4-7.7-10.3-14.1-12.6l-83-29.1c-34.2-12.1-41.1-8.5-50.6 27.2-1.9 7.2-1.9 14.8-2.7 22.2-1.4 12.3 4.7 18.3 16.5 20.6l95.6 19.1c10.5 2 21.4 7.4 30-6 4.6-7.2 8.6 1.1 11 4.3 9.6 12.7 11.1 27.6 9.5 42.9-2.3 23.2.5 45.2 17.2 63.2 5.6 6 3.7 10.7.8 16.6l-25.9 56.3c-6.2 12.8-2.6 21.6 9.2 28.2 13.6 7.5 28.2 9.9 43.4 9.9h154.3v.9h120.3c15.1 0 30.1.4 45.2-.1 4.6-.1 10.9.4 12.9-5.7 2-6.4-2.4-10.5-6.9-14zM87.4 666c5.9-30.4 11.5-35.8 30.6-30.5-17.2 2.4-22 15.3-30.6 30.5zm275.9-298.3c-11.6 1.7-30.3-9.4-31.2 14.6-1 26.3 6.5 50.5 28.2 66.3 11 8 16.5 17.2 21.1 29 27 69.4 84.6 112 149.7 111.9 14.4-.5 28.6-1.8 42.4-6.6 54.4-18.9 87.2-58.6 107.6-110.4 2.9-7.4 4.2-14.7 12.6-19.5 21.9-12.5 31.2-33.4 34-57.5 2.9-24.3-.3-27.5-24.4-28.4-11.6-.4-17.6.4-15.1 15.7 2.7 16.5 2.6 34.6-22.4 37.2-9.2 1-13.1 10.3-15.2 19.5-3.8 16.5-10.2 32-18.6 46.9-33.1 58.1-95 80.3-150.1 52.3-39.5-20-60.5-55-71.4-96.5-2.5-9.4-4.6-20.7-15.1-21.7-24.5-2.5-24.1-19.1-24.1-36.6.4-6.9 7.7-18.4-8-16.2zM204.6 773c.3-8.1-2.9-11.6-10.6-11.8-6.2-.2-13.2-5.2-16.9 5.3l-35 94.9c-1.9 5.3-3.3 9.5 3.9 11.6l40.7 12.6c16.1 1.4 37.3-39.6 30.9-52.9-9-19-13.8-38.7-13-59.7z"/></svg>