<?xml version="1.0" encoding="UTF-8"?>
<svg version="1.1" viewBox="0 0 1392 1644" width="348" height="411" xmlns="http://www.w3.org/2000/svg">
<path transform="translate(0)" d="m0 0h1392v1644h-1392z" fill="#FAFAFA"/>
<path transform="translate(0)" d="m0 0h1244l-2 2-19 2-16 1-72 1-23 2-36 6-26 7-21 8-27 12-26 12-12 6-24 9-20 7-22 10-19 10-16 10-23 16-21 14-10 8-16 13-12 11-10 13-10 18h-2l-2 4-7 9-5 8-8 21-7 24-8 21-2 13-1 20 2 16 4 12 9 17 10 21 10 18 9 18v5l-2 1-11-23-6-10-15-28-6-9-5-13-6-25v-29l3-18 5-17 8-16 4-4-1 6 1-1 3-8v-3l4-7 10-15 9-11-3 1-8 7-11 14-11 21-5 12-3 4 1-8 9-36 3-10-16 8-16 10-10 9-8 6-7 7-10 13-7 11-4 7h-1v-6l-5 5-8 16-6 14-7 24-9 38-4 25-2 10-1 13v131l-1 56-1 21v18l-3-4-3-18-1-11-1-14-3-13-2-20-2-12-1-18v-30l-1 3v14l2 42 2 32 3 8v20l-2 2-1-2-2-13v8l3 14-3-1-2-10-2-4-1-9-3-12-1-11-1-3v13l4 27 4 24 4 20 1 8v9h-3l-2-9-1 1v12l3 16 6 18 2 3v4l-4-1-3-8-3-11-2-3-2-10-3-9-4-7-4-8-6-23 2 11 4 17 2 5 5 21 2 12v7l-2-3-6-21-6-23-5-18-4-16-4-29-3-32v14l4 50 4 15 5 26-1 9v6h2l1 5 1 7-3-3-3-9-2-10-2-11-1-14-2-6 2 18 2 9 2 14 3 12 2 6 3 16-4-2-3-7 2 7 3 7 5 19v5l-3-3-5-15-6-17-2-11h2l-3-5-2-16-4-36-4-20v-90l6-55 2-15v-15l-5 25-2 26-2 37-1 57v15l-2 1-4-18v-55l-1-21-4 49-1 22-1 1 1 46 7 41 6 24 7 24 5 16 4 11 5 8 1 4-4-2-4-8-9-20-4-10-2 4-1-7v-6l-3-1-6-26-7-48-1-15v-20l3-31 1-41 1-19 3-22-4 4h-2l-1 4-1 8-2-1-2-24-1-4-3 6-7 9-11 19-15 24-8 13-9 15-8 16-7 16-3 16-2 28v18l3 49 3 25 4 14 6 36-1 16h-2l-7-21-1-7h-2l-2-5-2-4v-12l-1-1-2-32-3-1 2 7v11l-2 3-3-3-1-10-1 4 3 13-1 4 1 8-5-5-1-5h-2l-2-13-5-7-5-16-7-40 1 22 3 25 2 6 2 17v3l-4-1 1 10 1 28h-2l-2-11-1-12-2-6-2-27-1-6h-3l1 11 2 33 5 26 6 24 5 15-1 83-20 2-19 7-14 9-11 9-11 12-13 17-9 11-16 15-11 9-14 12-10 9-11 9-7 7-8 7-10 9-11 10-8 7-12 11-7 8-11 14-10 17-6 18-9 39-3 17-1 13-6 16-10 18-8 16-10 19-3 8v7l4 12 6 10 8 7 8 4 9 2h15l18-4 12-6h3l-12 18-11 18-9 16-14 24-12 19-15 23-16 24-12 17-13 18-11 15-26 36-15 22-10 14-10 17-6 10-7 9-7 5h-2z" fill="#FAFAFA"/>
<path transform="translate(1244)" d="m0 0h148v28h-2l-6 18-12 16-5 8-9 10-11 7-11 6-16 13-14 10-7 3v2l2 2-1 4-6 5-5 8v3l3 1-1 3-8 7-7 9-6 8-13 12-17 11-19 12-17 6-11 6-10 7-12 10-9 6-21 11-16 8-39 11-6 3 10-1 12-3 20-8 2 1-16 8-16 6-8 2-31 2-21 7 15-1 34-5 24-6 20-7 15-8 11-8 7-5 2 1-5 5-12 10-15 8-18 6-26 7-21 4-27 4h-6v2l14 1h19l18-3 16-5 17-7 19-9 16-10 15-11 7-2 9-6 6-7 5-11 2-2-1 28-3 14-5 12-24 36-8 11-19 19-5 18-4 23-5 14-9 14-9 12 17-12 10-9 5-5h2l-1 6-7 14-7 10-10 11-7 9-11 11-1 2h-2l-2 4h-2l-1 4 12-8 13-11h2l1-3 5-5h2v-2h2l-1 12-5 20-8 20-6 10-12 12-11 9-5 5h-2v2l-5 5 6 1v6l-7 11-5 6-5 4-7 8-12 11-9 10-13 18-9 11-10 9-16 12-19 12-19 10-17 10-28 15-15 8-20 9-28 13-15 6-17 8-21 9-28 13-21 7-31 9-37 11-21 8-34 14-9 5 5-1 23-9 33-10v2l-8 4-22 9 13-4 36-11 16-7 24-11 2 1-11 9-15 9-13 8-7 5 5-2 17-10 6-3-1 3-13 9-16 8-9 5h-2v2l11-4 21-6 23-7 31-13 13-6 13-5 2 1-9 7-20 12-12 9-25 14-11 6 11-2 12-4 5-2 3 1h3l27-11 17-8 5-5h2l-2 4-9 9h-2l-1 2-7 3-11 7-5 3-8 2 5 1 16-8 9-7v3l-5 5-9 7-23 15-21 12-16 7-17 8-4 1 6-1 21-9 2 1-11 6-8 4 23 1 1 1h10l10-4 18-10 10-6 3-1-2 4-6 7-8 7-9 7v1l26 6 26 8 25 10 32 14 30 12 27 12 35 17 49 21 20 9 30 13 29 13 28 11 37 17 23 11 27 13 25 10 23 11 29 12 24 10 50 16 35 8-4 1-20-3-29-6-36-12-27-11-46-19-23-9-30-13-25-11-54-25-99-43-26-11-30-14-40-18-30-12-42-18-24-9-30-10-20-5-7 1-24 14-22 10-27 9-38 10-21 6-33 10-36 14-22 9-16 8-14 9-3 1v2l21 3 36 13 20 1 1 4-12 2-3 1h-8l-4-1-6-1-34-8-14-1-6 2 2 5 4 2 3 3-1 4-6-3-14-1-1 5 1 8 2 13-1 10v16h2v-5l2 1-1 12 3 11 10 1 2 1h8 3 19l2-5 3 3v2h7l6-1 1-13 2-2 1 6v8l9-1 10-1 1-9 2-1 1 5-3 1 3 3 8-1 1-12 2-1 1-6 1-17 2 1v22l-2 13 8-2 1-6h2l1-17 2-1 1 4v12l-2 3v3h2l2-8 2-25 2 1 1 6v17l6-16 1-8h1v6l3-3 3-10h2l-1 11-5 14-1 5 1 1 1-6 6-11 1-3 5-1 2-14 2-5 2 1v12l1 3 2-6 1-10v-13l-2-4 1-11 2-9 2-3v2h2l1 3 2 17v38l2 3 2-7 1-15 2-3 1 4 1 19v20l-2 4v14l1 1 1-2h2v2h2l2-17h-2l-1 9-3 3v-12l2-7h2l1-11h2l-1 15 1 1 1-8 5-17 3-1-1 9-1 2-2 14-1 3-2 19h2v-16l3-3 1-8h2v9l-2 7-1 1v21l-1 2h-3l1 9-2 3h-1l1 20 3-1-1 8 1 3 4-16 3-3v7l-3 8 1 5 4-3h2l3-11 2-9v-13l3-14 2-22 3-13 2-8h1v8l-2 9-6 56 4-8 5-27h1v7h2l1-4h2v6 3 3l3-2 3-6 4-10 6-12 4-7h1v7l-4 17-1 2 2 1v3 3l5-4 2-1v-3l4-6 2 3 4-8 2-1-2 9 10-12 6-9 9-8v3l-9 12-6 10-12 16-6 7 4-4h2l2-4 7-8 7-9 7-7 1-2h2l1-3 3-2 3 1-14 21h-2l-2 4-7 9-2 5-8 7-1 7-3 1v4l-2 2 3 3-7-1v4l-14 8h-2v2h-2v-4l-9 7-12 9-23 12-28 12-28 11-18 8-16 8-22 9-16 3-7 2-37 6-40 2-30 3-29 6-21 6-20 7-16 8-12 7-11 9-10 11-10 14-6 12-3 12v15l7 14 9 12 9 8 11 6 16 5h16l44-4 23-4 28-2 7-1 2 2 7-3 12-3 1-1 1-12h1l1 12 4-1 1-10h1l2 11h12l5-1v2l3 1-1 2 3-3 2-3h5l1-1h5l2-4 4-1 1-3 2 1 2 4 3-6 5-2 3-4 3 1 1-2 7-1 1-4 2 2 1 7h2l2-4 8-1v2h3l1-8h3l2 2 2-2 2 3h2l2-7h1l1 5 1-4 4-1 3 1v-2l3-1 3 4 5-2 3-1 4-7 3 3 1 8h2l1-5 2-2 9 5 4 2 2-5 6-1 3 5v2l6-2v-2l5 1 5-1 5 5 2-2h4v-6l4 2 3 1 1 6h2l1-2h3l4-8h1v6l5-2 5-4 7-8 1 2-3 13v3l3 1 6-4 2 7 3-1 7-11 3-2-2 9-3 7 7-6 6-8 1 4-3 6 5-4 8-10 5-6 3-4-1 7-4 8-11 12-5 6 1 2 14-7 10-9 16-16 1-2h2v-2l6-4-2 5-28 28-3 5v3l5-2 3-1 1 2-2 1 1 3 4-4 7-10h2l2-4 4-4h2l2-4 13-15 6-7v3l-10 13-7 9-8 10-6 9-4 7 5-4 7-3 4-3 2 1-4 5-8 6-3 4 3 3 7 1 10-1h12l20-5 23-11 12-9 9-8 5-5-2 5-10 10-13 9-15 8-14 6 5 1 14-3 19-7 19-9 2 1-17 9-23 9-11 3-13 1-2 1 34 12 26 11 20 7 25 7 14 3 17 4 7 1-3-4 1-2 5 6 7 2 18 2 6 1v-2l9 2 3 1h25l1 1 18 1h17l29-3 11-3 5-4 10-4 14-7 13-6 5-1-1 2-14 7-10 6-14 6-14 7-16 4-36 3-15 4-3 1-22 1-3-1h-7l-1 3-4 1-6-1v3h-9l-13-4-11-2-10-5-4-1-9-3 1 5h-2l-4-6-11-3h-4l-3-3-4-2v-2l-11-3h-4l-6-3v3l-4-2-11-5-8-3-8-4-13-5-4-3h-3v-2l-5-2 6 8 19 8 16 8 20 8 11 5 20 6 6 3 7 2 4 2 3-1 12 5h5v2l4 1 9 3 31 4h28l19-2 27-6 25-8 12-4 11-2 4 1 14-11 9-9 8-7 9-7 2 1-16 16-3 5 4-3h3v-2l8-6 5-5 4-5 9-7 8-11 10-15 4-5 3-2 3 1-4 9-2 4 4 1-6 3-6 7-5 10 11 1h9l3-5 3-2-2 7-2 3h8l3-1v2l10 2 2 1h8l3-2-1 4h14l4-3-2 6-8 9v-3l4-6h-13l-6 4 2-6-10-1-1-1h-9l-2 1 1-4h-8l-5 3 2-5h-17l-9 1-5 4-3 6 1 2-5 1-3 1 1 1h29l2-4 2-1-4 8h9l4-2-1 4 4 1v2l-5 2h-6v-2l-10-1-4 3-2-1 2-4h-20l-8 3-10 9-1 3 6-3 10-3h3l-8 7-4 4h-2l1 3 6-1 3-1 1-3 2 2 16-13v3l-7 9-4 4-1 3 7-2 2-5 3 3-1 2 6-4 7-5-2 5-7 6v1l5 1v-2l8-7 1 2-4 6h7l10-8h2l-1 4-4 5-3 3 9-1 3-3 10-5 2 1-9 6-3 1-1 2h8l3-1h6l9-6v3l-4 6 7-1 5-2 6-3 3-2-2 5-5 5 13-1 7-4-2 4-2 2 9 2 5 1h11l5 1 3-2v2h4l1 2 3 1v2l9 1 3-1v2l5 1 1 2 7 3v2l-39-6-37-5-49-5-51-8-32-6h-10l-13 2-13 6-21 7-24 5-15 2h-32l-36-6-28-7-32-10-28-11-35-16-20-10-14-8-12-6-16-9-28-12-8-4-22-5-38-7-22-3-24-1h-40l-24 2v19l-2 27-4 16-7 14-11 14-13 9-8 3-4 1h-17l-8-3h-4l-6 7-8 7-9 6-13 5-8 1h-23l-10-5-7-7-5-7-1-3-1-68-1-6-23 3-15 1h-21l-9 12-26 26-7 8-13 10-16 8-17 6-16 3h-9l-11-1-13 22-10 15-14 24-11 21-8 10-16 8-16 10-13 9-11 9-12 11-11 9-16 15-14 10-12 7h-8v-20l10-7 7-10 12-21 9-13 10-14 8-12 14-19 12-17 12-16 24-34 16-24 22-34 15-25 11-20 11-18 14-21-14 7-18 4h-15l-9-2-10-5-8-8-7-14-2-7v-7l7-16 13-24 14-28 3-9 2-19 6-29 7-28 5-13 9-15 13-16 7-8 17-16 11-9 9-9 8-7 10-9 14-12 11-10 10-8 14-12 15-14 10-13 7-9 9-10 7-8 13-10 10-6 19-7 8-1h12v-83l-7-22-7-31-2-12-2-35v-9h3l1-2 1 10 2 25 2 6 2 23 1-5-1-33 4 1-2-10-4-26-2-15-1-27h1l8 45 6 18 4 5 1 13h2l3 6 2 2-1-7 1-4-3-12v-5l3 1 1 10 2 2 1-2v-11l-2-5 1-3 3 2 2 16 1 16 1 1v12l3 5v4h2l8 25v3h2v-16l-7-40-3-10-3-25-3-49v-18l2-28 3-16 7-16 8-16 15-25 15-24 9-15 9-14 4-5 2-4h1l1 5 2 24 1-8 4-4 2-3h2l-1 14-1 8-1 19-1 41-3 31v20l1 15 7 48 4 18 2 8 2 1 1 11 2-3 5 11 7 16 6 12 2 1-3-6-5-9-9-29-5-18-7-29-6-36-1-46 1-1 1-22 4-49 2-1 1 26v51l3 15 1 2v-19l1-53 3-55 3-18 4-20h1v20l-6 52-2 18v90l4 20 5 45 1 7 2 2v3h-2l2 5 3 12 10 28-1-8-6-21-2-3-1-9 2 3 4 9 2 1-4-16-6-22-2-15-2-16-1-9 2 1 2 8 1 14 2 14 5 16 1 2-1-6-1-2 1-3h-2l-1-12 1-3-6-31-3-10-4-50v-51h1l1 37 3 32 4 29 4 16 6 21 10 39 1 2-1-13-5-18-2-9-4-16-3-11v-6l2 3 6 23 5 10 3 5 3 9 3 12 3 9 3 10 4 2-5-13-4-13-3-15v-13h2l2 9h3l-1-9-1-8-5-25-5-30-2-16v-20h1l2 13 3 18 1 2 2 12 2 7 1 4 2 1-4-14v-8l1-6h1l2 19h1v-20l-3-8-3-48-1-36v-7h2l2 48 3 19 2 18 2 9 1 19 3 16 1 7 1 1v-20l1-16 1-60v-127l1-13 6-35 9-38 7-24 7-17 9-16 4-2 1 5 5-9 8-12 11-13 7-7 8-6 11-9 19-11 9-3-1 7-9 34-2 11 4-9 11-23 9-12 7-8h2l2-4 5-3 2 1-7 8-10 14-6 11-2 2 1 2-4 10-2-1v-3l-6 10-5 13-5 21-1 8v29l6 25 5 13 8 13 14 26 9 16 7 14-1-7-12-24-10-18-8-16-9-19-3-11-1-13 1-19 3-16 8-21 6-21 6-16 4-8 7-11 6-7h2l2-5 9-16 12-14 12-11 9-7 15-12 20-13 20-14 19-12 23-12 23-10 34-12 16-7 16-8 22-10 26-11 21-7 26-6 35-5 14-1 72-1 27-2z" fill="#1A171A"/>
<path transform="translate(1303,4)" d="m0 0h2l-2 4-8 9-6 7-1 1 6-4 6-8 3-2h5l1 7-8 6-17 11-11 8-15 12-10 6-4 1 1-4-3 2-1 5h-3l-2 4-4 3h-3l-2 4-6 6-5 2-7 5-11 16-3 2 1-6 12-18 5-9 8-13 8-11 2-4-9 11-5 5-4 7-9 12-6 9-2 1 2-5 2-8-3 4h-2l-1 3-5 4 1-9 4-8h-2l-2 5-4 4 1-5 3-7-1-1-3 1-1 4h-2l-2 5-2 3h-2l-2 6-4 2v-2l-4 4-4 9h-1v-11l1-3-4 4-5 13h-2v-11l1-3h-3l-1-2-5 12-3 6-2-4-1-6-2 5h-1v-13l-3 3-6 18-2 3-2 7h-1v-7l2-8v-5l-4 8-3 8-1 3-3 2-2 10-1-3-6-1v-9h-2l-1 6-6 16-2 1 5-25v-3l-3-1 2-13-2 1-3 12-1 5-3 4-3 14-5 13-3-1-1-4v4l-3 10h-1v-8l1-5-3-1v-11h-2l-3 12-1 1-2 11-3 10h-1l1-9 6-27 2-7v-6l-9 29-3 8-2-1-1-2-2 18-4 15h-1l-1-11h-2l1-7-3 5-4 16-5 2-2 6h-2l-1-26h-1l-3 15-2 4h-1v-17l-1-7-1 7-2 8-2 6-2 12h-3l-1 3-2-5-3 11-2-2-1-18-3 33-3 14-2-2-1-5-1-1-1-25-3 7-3 12-3 28-2 9-2 1v-11l2-21 7-28 4-22h-2l-2 14-3 13-3 10h-2l-1-2-2-14-1 4h-2l-3 29-2 4-2-6v-25l1-29h-2l-1 17-2 18-2-3-2 7-4 12h-1v-10l2-17 1-17 2-20-1 6-2 23-2 15-2 7-2 11-3 8-4 10-2 1-1-2-4 21-2 6v6h-2l-3-13v-2l-3-19-1-2v21l-2 19-1 7h-1l-1-29-2-7-3-17-1 5-1 21v9l-2 6h-2v2h2l1 6h-3l-1 21-2-1-1-6-2-19-1-16-2-7-1-21h-2l1 7 1 22 2 8 1 7v9l-1 5-2-2-1 1-1 7-3 1-2-8h-2l2 13v13l-1 6-2-3-4-36-2-20-5-17-8-20-2-11-1-11-1 16 6 17 3 10 4 18 2 25v6l-4-5-5-14-5-18-2-9-1-12v-2h-2l2 19 10 44 1 6v20l-2-2-3-15-3-8-4-18v-4h-2l5 24 2 13v18l-2 29h-1l-1-5v-14l-2-22-4-20 2 20 3 26-2 1-4-14-4-16-2-9 1 8 3 20v32l-2 1-3-22-3-15-5-32-3-13-1-6 1 16 4 20 3 17 3 23v39l-3-6-2-38-2-10-2-5-2-14-1-2 2 13 2 8 1 9v34l-1 9-1 22-2 1-2-38-1-40-4-22-9-26-7-16-3-9-3-19 1 13 4 15 11 29 6 16 2 10 1 22v4h-2l-5-12-13-41-6-25 1 10 3 16 13 43 4 14 2 12 2 10-2 2-3-7-3-5-1-3h-2v17l1 7-2 1-1-7h-2l-6-19-4-13-4-10-2-8h-2l-6-23-3-12-3-15-1-9 1 11 4 23 5 25 4 19 5 38 1 17-2-2-2-7-3-4-3-5-8-31 5 27 3 23-2-1-5-19-6-21-3-14-1-12-2-12-2-6-1-19-1 1 2 21 4 24 2 24 6 23 1 11-1 7h-1l-5-21-3-9-5-16-5-15-4-13-3-14-4-13-3-6v-3h-3l5 15 7 25 10 29-1 2-5-8-7-17-6-20-5-15-5-21v-47l5-16 3-3-2 13v5l4-15 2 2-1 13-1 5v8l4-17 4-22 5-22h1l1 16 2-5v-5h2l1-6h1l-1 31-2 13h2l1-27h2l3-18 5-14h3l-1 13-2 9-3 24v35h1v-35l3-25 4-9 3-11 8-10 4-12 4-16 2-3h2l-2 11-8 24-3 7-3 19-2 29-1 7-1 29 1-1v-18l5-50 4-20 2-2h1l1-5h2l3-10 6-18 5-9 1 4-4 11-9 34-1 7 8-22 3-6 1 2h2l1-6 2-11 2-5 5 1-1 8v12l2-4h2v14l-1 2h2l1-9 7-26 4-13 2-2v3l-1 8-5 25v4l4-13 7-19 8-17 3-2-1 9-7 20-7 21-3 17-2 15-1 18 1 16v-11l2-35 4-21 3-9 3-4v9l-1 10v10l4-23 8-27 4-1 5-9 3-3 1 1-1 21 2-2 2-4 1 1v8l2 1 2-11 3-3 3 2 3-13 4-15 6-7 3-6 1 2-2 6h-2l-2 10v10l4-12 6-11h2v7l-3 14 3-4 4-10 2 4v13l5-16 6-9 2-1 1 6-3 15-3 16v11l-1 12v10l4-29 6-27 5-10h1l1 5 2-2 3-10 2-1 1 9 3-3h2v5l4-8 2-6h2l-4 16-5 17-3 22v10l5-24 8-29 3-7 2 4v7l5-12 2-2 1 10 8-16 2-2-2 9v5l4-7 6-10 2 1-2 9 5-14v-6l6-11 3-6h1l-1 7-5 8-1 6 2 5 2 1 5-14 7-8 1 3-4 11-2 4 1 3 6-9 4-9 9-14 2-1-2 10-3 12-2 9v6l7-20 2-2 2-5h1v12l-4 15v3l5-15 2-1v16l4-10 4-9 5-5 4-2 4-6 8-10 4-7 5-8 1 3-8 16-4 13-1 7 3-4 1 1 5-10 2 2-4 17 1-3 4-5 8-16 3-7 1 4-5 17v3l2-6h3l1-5 3-7h2l1 5 3-8 2-1 2-5 2-1-1 16-2 8v5l4-15 5-5 6-12 1 3 1 4 8-15 1 4-5 20-2 6 1-1 10-20 8-21 2-1-2 10-4 16v3l11-23 2 4 3-1 6-11 3-6 3-1-1 7-4 9v4l4-9 6-9 2 1-2 8h5 3l-5 20v4l9-17 2-5 2 4 1 4 5-2 5-6 8-11 4-2-2 7-9 15 2-2h3v-3l5-2 5-3h4l1 2 7-5 3-9 4-1 5 1-3 9-9 8-5 6-7 6-1 2h-2l-2 4-4 4-8 11 5-5 9-11 6-5h2l2-4 12-12 13-9 5-1-5 5-5 6-10 8-7 7 4-2 10-9 6-3 1 3 6-4 5-3 7-4 13-3 5-2-2 4-1 1 5-1 7-4h2l1-3z" fill="#F8F8F8"/>
<path transform="translate(401,916)" d="m0 0h7l1 2h-5l-5 2-4 3h3l4 1-11 7-6 8-1 3 9-10 6-4 3-1h7l12 8 8 7 2 5h-11l-9 3-2 3h-2l-2 5-3 7v4l4-11 5-5 6-3h9l6 3-1 8-3 5-2 5-6-2-6-4 2 3 5 5h3l-2 6-10 19-11 19-6 11-14 22-8 13-7 11-9 14-11 17-8 11-4-1v6l-4 6h-3l-2 3h-3v3l2 1-4 1-6-7-6-9-4-5-4-1 5 10v2h-3l-4-4 3 6 2 10-3-1-7-8-3-2 3 6 5 7 3 12-3-3-8-12-4-2 1 1v6l-4-1-5-5-9-6 9 8 5 7-1 3-5-2 8 15 4 8-1 2-2-4h-2l-4-5-3-1 6 11v2l-2 2 1 5 2 5-1 4-7-9-3-2 3 6-1 2-3-1 10 18 5 6-2 2-5-7-6-4v-2l-5-1 6 15-4-1-4-3 6 12 4 7-1 3h-2l1 5-1 2-3-1-4-7-5-5 2 5 5 8-1 10h-4l-5-10-7-6-3-1 7 8 2 5-1 3-2-3-3-1 6 11v-5l4 2v4l-2 3h-2v2l-2-1 1-2-3-1-3-4-1 1 4 6 1 6-4-2-1-5-3-2 3 5-3 2 5 4-2 4-5-3h-8l3 5-3 1 4 4-1 4-5-1-8-4 2 4 4 2 2 5-5-1-3-3-1-2-3 1v2l4 2v2l-8-1v2l-6 2h-6l3 4 6 1 3 3-2 1-2 4-8 1-23-3 1 3 3 2 10 2 1 3 5-3h3l1 4-6 3h-6l-4-2-9-4-7-3-4-4 2 4 5 4 12 5-1 3-6-1v-2l-6-1-6-3-7-2-3-2-5-1h-3l2 4h4l-1 4h-6l-1-4h-2l1 5h-3v-2l-4 1-7-6-4-9 1-4 3-1 4-4 5-4 7-8 10-13 9-15 7-16 3-15v-10l-3-7-3-5-4-10-1-1 1-9 7-29 5-18 8-16 10-14 11-13 7-8 14-14 14-11 7-7 8-7 14-12 13-12 13-11 8-7 15-14 14-15 11-15 5-6 8-7 6-5 2-3h2v-2l3-1v8l2-3 4-10 8-6z" fill="#FAFAFA"/>
<path transform="translate(707,214)" d="m0 0h1v12l-1 22-1 12 3-12 4-13h1l-1 22-3 29v22l4 27 5 17 1 3h2l4 8 7 12 15 35v3l3 1 3 6-1 7 10 31 5 26v8h-2l-3-13-2-12-4-15-4-8-10-24-5-11 3 11 2 3 3 9 7 18 4 13v8h-1l-2-9-2-4-2-8-4-12-7-15-4-8-5-15-2-5-2-4 3 11 12 32 4 14 2 8 1 25-2-1-4-23-8-24-3-6v6l-3-2-3-11-1 1 5 18 1 4v-8l2-1 2 8 4 20 3 8 4 18v8l-2-1-3-10-2-15-3-8-2-8-2-7h-2l4 22v9l-2-4-6-26-6-15-8-35-1-13h-2l7 37 7 27 4 17 1 10h-2l-6-18 4 23 1 20v12h-1l-5-25-3-24-2-21-6-30-6-36-2-15-1-34 3-1-1-10v-3-10l-1 6-1 16v30l3 35 4 27 4 20 3 19 1 24 3 22 3 16v9l-2-3-4-16-4-13-3-6 2 9 4 21 2 19v6l-2-3-6-36-3-7-4-18-6-34-2-16-2-13-1 3 2 23 1 5 2 25 6 28-1 2h-2l-1-3 1 4 2 7 1 22 4 22 1 14-2 2-5-25-2-15v-12l-2-5h-2l-2-10-5-18-3-16-2-6-2-11 2 13 4 25 3 13 3 16 2 16v12h-3l-4-33-3-16-5-18-2-13 3 21 5 26 1 15 3 16v9l3 9 3 18v8l-2-1-5-21-4-15-8-14-8-24-8-29-6-33-1-10v20l1 6v8h-1l-3-16v-14l-3-22-1-28v-35l5-41 6-29 3-12 2-2v14l-1 9-1 2h2l4-20 2-6 1 4v11l4-22 2-7h1v27l2-16 2 1 2-4 3-15 3-25 3-5h1v11l-2 22-1 5-1 18 2-13 2-7 5-20h1v23l-2 24 2-13 3-19 4-15 4-28z" fill="#F6F6F6"/>
<path transform="translate(1135,5)" d="m0 0h38v2l-2 1-6 12-3 5h-3l-2-2-10 21-2 1 1-10 5-17-1 1-10 25-6 10-2 5-2-1 5-17 2-11-6 12-2 3-2-3v-5l-6 12-4 2-4 17-2 2v-7l2-8 1-15-3 8h-2l-3 7h-1v-6h-2l-4 12h-3l-1 6-2 1 1-8 4-14-9 17-3 7-2 1-2 7-1-4 4-18-6 10h-2l-3 4 2-14 6-15 5-9v-2l-7 13-7 8-7 10-2 2h-4l-7 14-4 10-1-3v-13l-5 15-2 1 1-7 3-12v-10l-2 6-3 4-6 17h-1v-8l2-9 5-19-1-1-9 15-5 10-5 7-2-1 1-5 4-10v-4l-5 6-5 14h-3-1l-2-8 3-8 4-6v-3l-8 16-1 9-5 12h-1v-5l2-6-1 1-5 8-4 8-2-1 1-8v-2l-7 14-2 1-1-9-5 13-2-1v-7l-1-2-5 15-7 28-3 15-2 1v-11l3-22 5-17 5-16h-2l-2 9-4 6-1-3 1-3-5 4-1-3-1-6-3 10-4 3-1-5-5 13-5 23-4 29-1 14h-1v-24l1-12v-13l5-23 1-10h-2l-5 8-5 16-2 1v-15l-1-1-5 12h-3l4-21h-2l-2 5-5 12-3 8h-1v-12l3-10h2l1-7-4 8-3 1-3 10-5 23-1-2h-4l-4 12-3-1v-8l-3 6-2-1 1-21-6 8-2 4h-3l-8 27-4 23-2 3v-13l1-16-3 7-4 17-2 23-1 19v13l-2 3-1-24 2-22 3-20 5-18 9-24 2-8v-4l-8 16-6 15-5 14-2 8h-1v-7l5-25 1-8-3 9-7 24-3 14h-2l1-16-2 1-2 4h-1v-13l2-8-4 1-1-1-2 10-1 7h-2v4h-3l-6 14-6 20h-1l1-12 9-32 4-13v-4l-5 11-4 13-4 10h-2l-1 7h-2l-4 20-5 50v19h-2v-29l2-23 2-21 3-14 4-8 4-13 5-20 7-7 15-10 35-24 15-9 21-11 23-10 34-12 16-7 16-8 22-10 26-11 21-7 26-6 35-5z" fill="#191619"/>
<path transform="translate(518,518)" d="m0 0 2 3v57l-1 29v39l2 30 3 18 2 14 3 22 5 16 1 10h-3l-4-13-4-16-5-21-4-28-2-16-1-3-2-19 1 27 5 43 4 22 7 36 1 4v9l-4-4-4-16-7-33-4-28-3-19-1-8v9l3 23 9 50 3 16v13h-2l-3-5-5-23-5-28-2-12-1-3 3 24 2 15 3 15 4 11 2 7v16l-2-2-4-17v14h-2l-11-40-4-17-7-29-5-27-2-16-1-22v30l5 30 14 62 3 12 4 23 1 23-2-2-9-44-1-3 2 17 2 11v10l-5-2 1 16 2 7 1 16-3-3-5-29-4-8-3-7-4-20-7-21-4-20 1 10 8 38 1 11-2-1 1 11 4 16 1 8 1 4-1 3h-2l-1-2-2 13-2 7-2 18-1 5h-1l-1-13 1-21h1l1-6v-18l-3-22-3-27-4-23-1-5-5-35-2-19-1-35 1-19h1l3-25 5-13 5-9h1v16l2-6 2-14 3-9 3-3v12l2-7 2-2 3-12 3-4 1 2v10l1 1 1-15 3-7h2l2-5 3-2v29l1 1 2-26 1-9 5-17 4-8 2 2z" fill="#F8F8F8"/>
<path transform="translate(1156,132)" d="m0 0 2 1-10 8-26 20-14 9-13 10-12 10-8 6-12 11-9 7-9 8-7 8-7 7-8 7-16 15-11 9-42 42-8 7-9 9-11 9-9 10-35 35-9 11-12 14-9 11-10 11-11 14-9 11-12 14-9 12-8 10-8 9-8 10-13 15-12 14-10 11-14 19-10 13-13 16-11 14-27 40-7 11-11 18-10 13-22 33-9 14-9 12-13 18-7 11-8 14-10 17-10 12-9 13-8 13-8 11-12 16-14 20-8 11-8 12-7 10-8 14-5 10-10 14-11 16-11 18-11 20-12 22-14 25-13 23-21 33-9 15-10 16-8 16-7 13-11 18-8 13-11 24-9 19-5 5-6 4 1-4 2-4h2l2-5 12-25 1-2-6 9-8 14-9 14h-1v-7l10-17 12-20 8-14 4-5 10-15 12-23 7-14 9-11 9-16 9-15-4 3 1-6 10-18 6-10 17-35 9-16 8-13 4-2 12-18 24-38 11-16 11-14 10-14 8-12 9-13 7-11 4-7 9-13 10-16 13-20 4-12 7-9h2l-2 6-6 9v2l9-11 10-16 9-14 11-20 11-17 8-12 13-17 9-13 9-14 6-11 13-18 7-10 4-8 13-18 10-11 6-8 6-7 12-17 7-10h2l2-4 2-3 2-6 10-13 13-13 10-13 11-13 8-9 7-8 7-6 10-15 9-12 10-11 7-8h2l1-3 4-2 9-11 7-11 5-7 5-5 9-10 7-8 5-2h3l1-3 8-7 3-4-3 1 2-4 9-11 10-10 14-11 9-6 7-8 10-9 6-5 7-9 4-4 5-3 13-11 10-9 11-9 11-10 2-3h2l1-3 11-9 12-12 5-6 8-6 3-4 8-3 9-7h2l2-4 15-11 14-10 11-9 12-7z" fill="#F9F9F9"/>
<path transform="translate(251,1286)" d="m0 0h2l-1 7-4 7-9 11h2v-2h2l2-4 3-3-1 8-10 15-5 10h-2l-1 5h3l1-4h2l3-6h2l1-5 2 1-2 5-7 15-5 9-2 4-2 1v3h-2v5l-2 3h-2l-3 9-7 14-9 19-12 18-3 6h-2l-2 5-4 7-5 5-6 9-8 11-4 7-3 1-10 19-8 17-13 22-11 16-4 5-4 2 1-9-4 8-8 9-2-1 10-16 3-6 1-5-4 1-2 4-10 13-6 8-9 4-2 1 1-4 5-10 4-18-6 5-8 11-9 13-5 7-7-1 1-5 7-10 10-17 9-12 7-8 10-14 12-15 11-15 14-22 8-12 11-17 21-33 10-14 1 3 7-11-5 6-1-2 6-10 6-11 11-17 14-19 10-14 5-5-1 5-7 11-8 11v5l-3 2-1 1 1 2 7-10 3-5h2l2-5 8-12 10-12 2-4z" fill="#F8F8F8"/>
<path transform="translate(352,1265)" d="m0 0 7 1 13 9 7 8 4 10 2 9 1 20v23l-2 3-12-3-12-6-5-7-2-11 1-10 4-10 6-8 6-5 6-2v-2l-9 2-7 5-5 8-3 13 1 12 1 10 5 9 8 7 10 6v1l-9 1-15 6-1 2-10 3-10 1-15 2h-24l-8-4-5-5-7-8-6-10-4-11-1-14 3-14 4-10 4-5 16-10 16-8 17-4z" fill="#FBFBFB"/>
<path transform="translate(583,1085)" d="m0 0 4 1 3 4 2 5 3 3 5 10 3 9-1 6h-2l-2 14-2 1-1-2-2 15v4l-3-1-1 2-3-1-2 5-6 5-3 3-4-2-1-23-1 16-2 6-4 1-1-1-5 5-4-4-2 7-6 1-3-5-2 5h-8l-1-1h-6l-4 2-3-7-1 2h-5l-2 2-1-5-6 2-1-5-3 6h-4l-6-2-3 3-5-2-1-2-3 3h-2l-1-2v-20l-3-17-8-16v-3l-3-1-1 5-3-1-2 2-7-14-7-8-5-3 10 15 8 13 1 5h-3l-10-14-2-4-3-1-1-4-3 1-7-7 2-5 4-4 8 1 6 3 7 2 8 1 4 5 3 6-3-10h11l2 4 2-1v-2l11-1 5-1v4l3-1 2-3 8 1 2 2 3-3 4 1 3 3v-5h4l2 4 2-4h3l1 7h2l1-7 5 2 1 8h2l-2-6 1-5h5l2 3v3h3l2 4-3-12h4l6 10 2-1 2 1 1 4v-12h2l5 9 1 7v-6l-1-2v-9l4 1 1-6z" fill="#F9F9F9"/>
<path transform="translate(639,297)" d="m0 0 1 4-5 22-1 5h-2v10l-2 3-1 3v6l2-8 5-18 2-1-2 15v40l2 18 1 7 1 22 3 22 4 19 1 13h3l1 11 1 8 1 2 3 21 4 23 2 6 3 25 3 22 1 10v11h-1l-5-28-2-16-5-27-7-28-4-18 2 13 6 27 2 11 4 42 1 11v9l-2-1-3-15-3-28-1-2-2-17-3-14-1-6 1 15 3 19 5 38 4 22v11l-2-1-3-17-6-28-5-27-2-19-4-22-3-13 4 25 3 23 2 18 5 29-2 2-5-26-3-18-3-9-2-14v12l5 22 5 30 8 39v2h-2l-7-26-5-16-5-25-3-24-5-53-1-29-1-10v32l3 47 1 46 1 12 4 14 1 12 1 4h-2l-4-11-2-9-2-12-5-47-2-10 2 25 2 18 1 31-2-1-2-6 1 10 5 23 6 16 6 10-1 2-4-5-7-14-4-10-5-21-3-12v-85l1-7-1-39v-73l2-19 7-25 5-18 5-16 8-24z" fill="#F8F8F8"/>
<path transform="translate(422,1097)" d="m0 0 4 2 14 14 6 16 2 6 1 17-2 8-3-1-5-6-2-1 2 8 2 3v7l-4-1-4-2v6l-3-1-1 6-4 2-7-1 3 6-2 1-10-5 1 4h2l1 5-4-1-3-3-6-1v4l5 2 4 4-1 3-7-1 1 5-5-1-4-4-7-1-6-2-1 1 8 8-1 4-15-8h-2v2l4 2 4 6-3 1-9-3h-5l8 6-2 1-12-4v2l5 2 1 4-7 2-11-1 1 5-4 3-5-1v-2h-2l4-8-5 1 1-6h2l1-5 13-27h2v-6l3-2 2-7 8-11 7-7 11-6 9-6 7-8 3-4 5-1 2-5 2-2 1-4h3l1-4 2-2h4l-1-4z" fill="#FAFAFA"/>
<path transform="translate(522,483)" d="m0 0h1l1 5 2 24 1-8 4-4 2-3h2l-1 14-1 8-1 19-1 41-2 18h-2v-46l-1-13-1 5-1 45-3 10v43h-3v-34l1-40v-47l-4 3-1-2-4 8-4 15-2 21-1 15-3-3v-27l-4 6h-2l-2 7-2 15-2-1v-11l-3 5-3 14h-2l-2 7h-1v-13l-3 7-2 9-3 20h-1l-1-5v-14l-7 14-3 12-1 10-1 38h-1l-1-7 1 34 4 31 3 23-2 2-4-10-3-19-3-39-1-21v-18l2-28 3-16 7-16 8-16 15-25 15-24 9-15 9-14 4-5zm3 113 2 2h-2z" fill="#191619"/>
<path transform="translate(1303,4)" d="m0 0h2l-2 4-8 9-6 7-1 1 6-4 6-8 3-2h5l1 7-8 6-17 11-11 8-15 12-10 6-4 1 1-4-3 2-1 5h-3l-2 4-4 3h-3l-2 4-6 6-5 2-7 5-11 16-3 2 1-6 12-18 5-9 8-13 8-11 2-4-9 11-5 5-4 7-9 12-6 9-2 1 2-5 2-8-3 4h-2l-1 3-5 4 1-9 3-6 2-7 8-9 5-5 10-11 5-5 4-2 2-4 12-12 13-9 5-1-5 5-5 6-10 8-7 7 4-2 10-9 6-3 1 3 6-4 5-3 7-4 13-3 5-2-2 4-1 1 5-1 7-4h2l1-3z" fill="#F7F7F7"/>
<path transform="translate(686,227)" d="m0 0 2 1-2 4-3 25-3 15-3 8h-1l-2 11-2 1v-23l-3 12-2 12-2 1v-13l-3 14-2 10-3-1 1-11v-12l-6 25-4 23-4 34v35l1 28 3 24v17l-2-1-6-31-1-10-1-22-2-14-1-11v-40l2-14-5 18-3 9-1-2v-7l1-5 2 1v-8l1-2h2l-1-3 4-16 2-10-12 36-5 20-5 16-3 9h-1v-8l8-36 8-30 7-18 8-16 5-7h2l1 5 5-9 8-12 11-13 7-7z" fill="#1D1A1D"/>
<path transform="translate(337,1258)" d="m0 0h17l9 1 2 4 5 3 5-1 5 5 3 5-1 6 6 8 5 18 3 7v9l-2-1-2 26-2 9-5 5-14 9-13 4-25 3-12 1h-21l-12-3-9-6-8-8-7-11-5-12-2-17 2-12 6-14 7-9 7-6 17-10 16-6 9-4zm15 7-36 5-16 5-18 10-10 7-5 8-4 13-1 13 2 12 7 14 8 10 5 5 6 4 3 1h24l22-3 9-2 12-6 12-4h5l-3-3-10-6-7-8-3-6-2-16 1-12 4-11 5-6 7-4 7-1v2l-6 2-9 8-5 9-3 12 1 12 3 6 5 5 10 5 12 3 2-3v-23l-1-20-3-13-6-10-9-8-8-5z" fill="#191619"/>
<path transform="translate(393,1383)" d="m0 0 16 4 10 4 1-4h8l9 11 10 8 7 8 1 4-5-2-8-6-15-9-9-4 20 13 10 9 3 2v2l-5-2-6-3-6-4 7 7v4l-6-2-5-2 7 8 2 4v3l-5-1-4 2-6-1 9 10 2 7-4-3v-2l-4-2-5-2 7 11v4l-5-1-4-2 6 9-2 2-8-7-4 1 3 7h-18l-4-1-4 1-4-4 2-4 5-5 3-4 2-11 5 2v-2l-4-1-2-3-1-25v-11l-1-7h3l-5-5-1-4z" fill="#F9F9F9"/>
<path transform="translate(594,336)" d="m0 0h2l5 22 4 25v6l-3 4 1 13-1 9h-1l-2-24-2-2-1-4-2 7-2 21v3h-2l1 3-3 6h-1l-1-28-3 14-4 7-2 15-3 11-1 9-2-3v-5l-1 9-2 8-2 11-1 21 2-16h1l1 52 1 14v44l4 23 1 9h2l5 24 3 24 1 9-4-5-4-15-2-7-3-24-5-33-1-20v-30l-4-36-2 4-1-6-1-38-2-2 4-24 6-17 8-18 8-22 7-26z" fill="#1C191C"/>
<path transform="translate(758,193)" d="m0 0 2 1-7 8-10 14-6 11-2 2 1 2-4 10-2-1v-3l-6 10-5 13-5 21-1 8v29l6 25 4 10-1 3-4-4-5-17-4-27v-22l3-29 1-19-5 16-2 9h-1l2-37v-11l-2 17-4 18-3 13-5 35h-1l1-24 1-8v-20l-5 23-1 1-3 22h-1v-11l1-16 2-14 1-13v-12l11-10 15-9 14-7h2l-1 7-9 34-2 11 4-9 11-23 9-12 7-8h2l2-4z" fill="#191619"/>
<path transform="translate(736,258)" d="m0 0h2v41l3 19 6 22 8 21 12 29 5 19 1 7v8l-4-4-11-24-6-10-5-8-9-16-8-19-5-21v-18l3-22 3-11z" fill="#FBFBFB"/>
<path transform="translate(229,1384)" d="m0 0 4 2 7 5 14 4 4 1 17 1-1 2-6 1h-18l-15-3 2 2 11 4 12 1 2 1v2h-11l-12-2 11 5 13 3v2l-18-2-13-4-6-2 16 7 8 3v2h-11l-15-6h-2l8 4 17 5 3 4-7 1-12-2-14-4 11 5 10 2-2 2-3 2 3 3v3l-9-1-16-8-3-1 1 3 21 10 4 2-1 2h-14l-12-6-4-3 3 5 9 7v1h-8l-9-3 2 5 1 4-8 2h-3l1-5 7-14 7-10 8-16 3-5 4-6 7-14z" fill="#F8F8F8"/>
<path transform="translate(1121,316)" d="m0 0h3l-2 4-29 20-4 1 4-5-16 8-20 11-13 4-26 4-25 3h-10l1-2 12-4 1-1 12-2 15-6 17-5 22-9 20-8z" fill="#FAFAFA"/>
<path transform="translate(1027,577)" d="m0 0 2 1-10 9-33 33-14 9-16 8-11 8-16 12-10 6-27 10-38 19-16 7-15 5-26 8-18 7-18 6-3-1 8-4 8-3-8 1-19 5h-2v-2l15-5 9-2 9-1 16-6 13-4 21-5 30-13 30-14 21-9 18-10 17-12 13-8 7-2 11-6 11-9 13-13 7-8 7-7 11-8z" fill="#FBFBFB"/>
<path transform="translate(555,451)" d="m0 0h1v20l-6 52-2 18v90l2 9v7l-3-4-3-6-4-18-4-16-2-10h-1v-21l4-49 2-1 1 26v51l3 15 1 2v-19l1-53 3-55 3-18z" fill="#191619"/>
<path transform="translate(167,1208)" d="m0 0h7l3 3v7l-3 10-4 5-3 2-7 16-6 13-6 12-8 11-4 2-5-1 2-7 8-16 11-24 9-17 4-13z" fill="#FAFAFA"/>
<path transform="translate(670,873)" d="m0 0h2l-1 3 7-1h20l4 1v2l-36 12-19 6-21 5h-2v-2l40-13 18-7-5 1-19 3-25 9-13 4-40 10-30 8h-2v-2l24-8 34-10 28-9 32-10z" fill="#F9F9F9"/>
<path transform="translate(1304)" d="m0 0h88v25l-3-1-1-4-5-2-8-3-9 1-2-1 1-4-6 1-3-3v-2l-6 2-10-1-32-6-4-1z" fill="#FBFBFB"/>
<path transform="translate(377,1389)" d="m0 0 5 2 2 10 3 7 1 13v3l1 4 2-2 1 24-10 7h-3l-2-10-1-17v-38z" fill="#FBFBFB"/>
<path transform="translate(525,519)" d="m0 0h1l1 23 1 9v18l-1 28h-1l-1 25 1 25 2 13 2 23 4 17 2 12 2 13v7l-2-3-4-17-3-15-2-6-3-18-3-27-1-5v-43l3-12 1-43z" fill="#FBFBFB"/>
<path transform="translate(612,518)" d="m0 0h1l1 20h1l2 11 1 15 2 18 1 31-2-1-2-6 1 10 5 23 6 16 6 10-1 2-4-5-7-14-4-10-5-21-3-12v-85z" fill="#FBFBFB"/>
<path transform="translate(995,592)" d="m0 0 2 1-4 4h-2v2l-12 9-9 7-18 11-16 11-11 8-10 6-16 6-13 5-20 9-27 11-17 6-4-1 34-14 23-11 20-8 16-6 12-8 17-13 16-8 10-6h2v-2l10-8 10-7z" fill="#FBFBFB"/>
<path transform="translate(1040,429)" d="m0 0 2 1-5 3-6 1-28 14-18 5-13 4-19 5-29 5-13 1v-2l21-6 35-8 28-8 28-12z" fill="#FBFBFB"/>
<path transform="translate(930,557)" d="m0 0 2 1-8 5-22 10-16 5-6 1h-13l-2-1-11 2h-8l4-3 16-5 31-7 14-3z" fill="#F8F8F8"/>
<path transform="translate(1372,38)" d="m0 0h3l-2 4-14 8-13 6-29 8-17 4h-7l3-2 24-9 23-11 24-7z" fill="#FBFBFB"/>
<path transform="translate(969,566)" d="m0 0 3 1-25 12-32 11-2 1h-6l-7 2-25 6-14 2-10 2h-5l4-2 29-7 38-12 29-9z" fill="#FBFBFB"/>
<path transform="translate(1133,1422)" d="m0 0h18l2 1-1 4-1 3-5 3-10 8-5 3-1-2-4 4-6 1-2-2 1-2h2l2-4 8-6-3 1-11 3-3 1 1-4 7-7 7-4z" fill="#F7F7F7"/>
<path transform="translate(1156,1401)" d="m0 0h13l4 1-2 6-5 5-4 5-2 1h-28v-2l5-3 1-1 5-8 4-3z" fill="#F7F7F7"/>
<path transform="translate(206,1428)" d="m0 0 5 4 19 9 4 2-1 2h-14l-12-6-4-3 3 5 9 7v1h-8l-9-3 2 5 1 4-8 2h-3l1-5 7-14 7-9z" fill="#FBFBFB"/>
<path transform="translate(451,1385)" d="m0 0 9 2 4 4 2 8h-3l-2-4h-2l3 6 1 3-4-2-4-3 2 6-1 3-11-7-9-6-6-6v-2l8-1 9 3 4 3-2-6z" fill="#FBFBFB"/>
<path transform="translate(568,544)" d="m0 0h2v44l4 23 1 9h2l5 24 3 24 1 9-4-5-4-15-2-7-3-24-5-33-1-20z" fill="#191619"/>
<path transform="translate(1174,1320)" d="m0 0h1l-1 18 9-17 2-1-2 6-6 13-5 14-4 7-7 13-10 12-15 12 1-4 9-9 10-13 6-12 3-8 5-8 3-20z" fill="#191619"/>
<path transform="translate(650,282)" d="m0 0h2l-3 23-5 29-2 12-3 34-2-1-1-10 1-12 1-3-1-5 1-16 7-29z" fill="#FBFBFB"/>
<path transform="translate(464,683)" d="m0 0h1l5 37 4 23 6 27 4 15 4 26-3-1-4-18-3-17-6-26-5-25-2-12-2-24z" fill="#191619"/>
<path transform="translate(693,875)" d="m0 0 9 1v2l-36 12-19 6-21 5h-2v-2l40-13 21-8h3v-2z" fill="#FBFBFB"/>
<path transform="translate(1017,463)" d="m0 0 2 1-9 6-23 11-23 9-34 10-11 2-1-2 15-5 32-9 11-5 10-3 14-7z" fill="#FBFBFB"/>
<path transform="translate(974,538)" d="m0 0h6l-2 2-22 9-12 5-8 2v-2h-8l-7 1h-9l3-2 40-10z" fill="#FBFBFB"/>
<path transform="translate(620,1088)" d="m0 0h3l3 9 2 12v13l-3 3-1-3-2 7-2-2-1-9v-13z" fill="#F0F0F0"/>
<path transform="translate(791,674)" d="m0 0 3 2-27 7-17 5-31 8-12 4-4-1 11-5 42-12 26-7z" fill="#FBFBFB"/>
<path transform="translate(655,1047)" d="m0 0h2l-2 15-4 22-4 10-3 7-2 4 1-11 1-10 2-6 3-24 3-3 1 7z" fill="#191619"/>
<path transform="translate(332,1183)" d="m0 0 1 3-7 15-3 2-5 12-8 16-8 15-6 9h-2l3-9 9-17 9-19 10-14z" fill="#FBFBFB"/>
<path transform="translate(592,954)" d="m0 0 2 2 4 11 3 15 3 2v28l-3 2-5 17-2 4h-2l1-7 5-15 1-5v-25l-5-19z" fill="#191619"/>
<path transform="translate(701,831)" d="m0 0h6l-4 3-23 11-33 11-18 4h-6l3-2 33-10 20-6 21-10z" fill="#FBFBFB"/>
<path transform="translate(447,858)" d="m0 0 2 2 1 4v12l-2 28-3 15-1 3-2-1 1-20 2-19 1-19z" fill="#FBFBFB"/>
<path transform="translate(857,613)" d="m0 0h10l1 2-14 4-10 2-38 4h-3v-2l7-2 24-3z" fill="#FBFBFB"/>
<path transform="translate(435,770)" d="m0 0h2v18l2 1-1-7 1-5 1 3h2v12l-3 28-1 8-2-2-1-9v-15h3l-1-10h-2l-1-16z" fill="#FBFBFB"/>
<path transform="translate(138,1494)" d="m0 0 1 4-10 16-9 14-15 24-2 1 1-6 7-12 12-20 7-11 2-3h2l2-4z" fill="#191619"/>
<path transform="translate(1180,1392)" d="m0 0 1 2-2 5-2 3h8l3-1v2l10 2 2 1h8l3-2-1 4h14l4-3-2 6-8 9v-3l4-6h-13l-6 4 2-6-10-1-1-1h-9l-2 1 1-4h-8l-5 3 2-5h-4v-2l6-1 3-5z" fill="#191619"/>
<path transform="translate(600,590)" d="m0 0 3 1 2 6h2v39l-3-4-3-18-1-11-1-12z" fill="#FBFBFB"/>
<path transform="translate(534,592)" d="m0 0h1l4 21 4 14 2 10 4 8 1 5v24h-1l-3-20-6-25-4-15-2-10z" fill="#FBFBFB"/>
<path transform="translate(1338,62)" d="m0 0 4 1-12 5-27 8-14 4-10 1v-2l-3-1v2l-8 1 3-3 3-1 16-2 43-11z" fill="#FBFBFB"/>
<path transform="translate(668,533)" d="m0 0 2 3 7 21 6 25 1 7v10l-2-2-6-28-7-23z" fill="#FBFBFB"/>
<path transform="translate(871,534)" d="m0 0h6l-2 2-18 6-18 3h-13l4-3 26-6z" fill="#FBFBFB"/>
<path transform="translate(667,484)" d="m0 0 3 1 3 17 4 16 2 5 2 16 2 8-1 3-4-10-5-20z" fill="#191619"/>
<path transform="translate(20,1617)" d="m0 0 1 3-6 8-12 13h-2l-1 3v-16l8-3 10-6z" fill="#FBFBFB"/>
<path transform="translate(1195,1423)" d="m0 0 1 2-2 4 14 1 2-1-1 4h14v2l15 1 1-2v3h12v2l17 2 10 3v1l-18-2-1-1h-10l-5-2-9-1-1-1-15-1-4-2h-10v-3l-8-1-7-1 1-3h2z" fill="#191619"/>
<path transform="translate(944,509)" d="m0 0 2 1-10 4-19 5-20 6-11 2-26 2 1-2 11-2 19-2 19-5 13-4z" fill="#FBFBFB"/>
<path transform="translate(803,241)" d="m0 0 2 2 3 19 8 21 7 18 4 12-1 4-4-10-13-33-4-13-2-12z" fill="#191619"/>
<path transform="translate(158,1478)" d="m0 0 1 3-8 16-6 10-8 15-5 8-2-1 7-15 2-8h3l1-5 3-4 3-5 7-10z" fill="#FBFBFB"/>
<path transform="translate(1020,408)" d="m0 0 3 1-10 5-19 5-37 6-3-1 7-3 23-4 28-6z" fill="#FBFBFB"/>
<path transform="translate(1125,259)" d="m0 0m-4 1 4 1-9 4-14 6-16 4h-7l3-3 11-4z" fill="#FBFBFB"/>
<path transform="translate(501,708)" d="m0 0 2 2 2 15 3 16 5 26 2 6v6l-2-1-4-11-4-22-3-24z" fill="#191619"/>
<path transform="translate(886,641)" d="m0 0 4 1-12 5-33 14-13 5-13 4h-5l2-2 34-12 26-11z" fill="#FBFBFB"/>
<path transform="translate(1338,30)" d="m0 0 4 1-17 7-11 5-18 7-3-1 14-8 18-8z" fill="#FBFBFB"/>
<path transform="translate(460,824)" d="m0 0h2l5 12-1 14-2 20-4 3 1-22 2-7-1-9z" fill="#FBFBFB"/>
<path transform="translate(1326,42)" d="m0 0 4 1-4 3-31 12-12 4-5 1 4-3 10-5 5-2 14-6z" fill="#FBFBFB"/>
<path transform="translate(460,1011)" d="m0 0 5 5 6 9 3 5 8 5 4 1-2-7 2-1 2 8 6 1v-5l2 3 2 5v16h-1l-2-16h-8l-7-2-2 1-3-5-5-4-6-9-3-6z" fill="#191619"/>
<path transform="translate(598,533)" d="m0 0h1l2 17 3 34 2 9v5l-2-1-3-7-2-13-1-24z" fill="#191619"/>
<path transform="translate(986,358)" d="m0 0h9l-3 3-16 4-20 3h-5l2-2 11-4 13-3z" fill="#FBFBFB"/>
<path transform="translate(238,1371)" d="m0 0 8 1 7 3-2 1 5 5v3l-8-1-10-4-2-2 1-5z" fill="#FBFBFB"/>
<path transform="translate(924,147)" d="m0 0 2 1-3 14-2 16-2 25h-2v-24l3-20 3-11z" fill="#191619"/>
<path transform="translate(1074,479)" d="m0 0v3l-16 10-12 7-26 11-2-1 5-3 17-8 16-9 11-6z" fill="#FBFBFB"/>
<path transform="translate(575,502)" d="m0 0h1l1 25 3 33-1 6h-2l-2-20-1-20v-17z" fill="#191619"/>
<path transform="translate(1e3 542)" d="m0 0 3 1-5 4-10 5-18 7-20 6-3-1 38-15z" fill="#FBFBFB"/>
<path transform="translate(504,672)" d="m0 0 2 1 3 23 4 25 1 12-2-1-6-32-2-18z" fill="#191619"/>
<path transform="translate(429,849)" d="m0 0 2 4 1 61 1 2v7h-1l-3-11z" fill="#FBFBFB"/>
<path transform="translate(752,726)" d="m0 0 3 1-5 3-18 6-22 6-3-1 2-2 9-3 16-5 16-4z" fill="#FBFBFB"/>
<path transform="translate(699,297)" d="m0 0 2 1v16 3 10l-2 2v32h-1l-1-5v-30l1-16z" fill="#191619"/>
<path transform="translate(73,1554)" d="m0 0h1v5l-7 12-11 9h-2l2-5 9-12 4-5z" fill="#FBFBFB"/>
<path transform="translate(915,603)" d="m0 0 3 1-40 16-4-1 10-6 15-6z" fill="#FBFBFB"/>
<path transform="translate(781,207)" d="m0 0h1l-1 15-1 13v32l-3 1v-37l2-12 1-11z" fill="#191619"/>
<path transform="translate(859,619)" d="m0 0h6l-3 3-17 5-22 5h-5l3-2 23-7z" fill="#FBFBFB"/>
<path transform="translate(906,619)" d="m0 0 3 1-10 4-18 6-12 5h-4v2h-2l1-3 10-5 17-6z" fill="#FBFBFB"/>
<path transform="translate(892,228)" d="m0 0h2l1 3 1 18 2 8 1 15h-3l-2-13-1-2z" fill="#191619"/>
<path transform="translate(627,717)" d="m0 0 1 2-9 16-13 17-7 11-7 10-2-1 16-24 13-18z" fill="#FBFBFB"/>
<path transform="translate(1040,364)" d="m0 0h2v2l-14 5-25 5-4-1 18-6z" fill="#FBFBFB"/>
<path transform="translate(624,1060)" d="m0 0h1v15l2-4 1-6h2v9l-2 8h-2v-2h-2l-1 3-2-2v-14z" fill="#FBFBFB"/>
<path transform="translate(606,1085)" d="m0 0h1l1 13 1 1v10l2 6v7l-2-1-3-8-2-8 1-19z" fill="#F8F8F8"/>
<path transform="translate(453,870)" d="m0 0h3v11l-1 18-2 7h-2l1-30z" fill="#FBFBFB"/>
<path transform="translate(966,605)" d="m0 0 3 1-15 10-10 6-14 7-2-1 17-11z" fill="#FBFBFB"/>
<path transform="translate(853,568)" d="m0 0 2 1-13 6-7 2-16 2 3-3 16-5z" fill="#FBFBFB"/>
<path transform="translate(739,634)" d="m0 0h5l-2 2-27 7-11 1 3-3 15-4z" fill="#FBFBFB"/>
<path transform="translate(769,806)" d="m0 0m-3 1h3l-1 3-10 7-14 7-6-1 1-2 10-3 15-10z" fill="#F8F8F8"/>
<path transform="translate(752,651)" d="m0 0h7l-1 2-24 6-12 1v-2l16-4z" fill="#FBFBFB"/>
<path transform="translate(1017,456)" d="m0 0 2 1-10 6-12 6-11 6-10 4-6 2h-5l3-2 18-7 21-11z" fill="#FBFBFB"/>
<path transform="translate(411,1078)" d="m0 0 1 3-6 12-7 10-2 3-3-1 3-7 7-9z" fill="#FBFBFB"/>
<path transform="translate(322,1165)" d="m0 0v3l-7 14-10 14-3 3 1-5 12-20z" fill="#FBFBFB"/>
<path transform="translate(1065,460)" d="m0 0 2 1-12 9-15 11-10 5-2-1 13-9 15-10z" fill="#FBFBFB"/>
<path transform="translate(432,798)" d="m0 0h1v21l-1 4v11l-2-2-1-5v-12l1-15h2z" fill="#FBFBFB"/>
<path transform="translate(685,364)" d="m0 0h1l1 8 2 34-3 1-1-3z" fill="#191619"/>
<path transform="translate(637,333)" d="m0 0h1v20l1 2-1 2-1 12h-2v-31z" fill="#1B181B"/>
<path transform="translate(1080,1347)" d="m0 0v3l-13 12-11 9-14 11-4 3-2-1 7-6 12-9 11-10 11-9z" fill="#191619"/>
<path transform="translate(929,619)" d="m0 0 3 1-35 20-7 1 4-3 23-12 10-6z" fill="#FBFBFB"/>
<path transform="translate(1029,524)" d="m0 0 2 1-13 9-10 5h-14l3-2 13-3 16-8z" fill="#FBFBFB"/>
<path transform="translate(729,825)" d="m0 0 2 1-15 10-17 9-3-1 6-4 15-9z" fill="#FBFBFB"/>
<path transform="translate(709,705)" d="m0 0 4 1-12 5-19 7-13 5-2-1 13-6z" fill="#FBFBFB"/>
<path transform="translate(768,305)" d="m0 0h2l3 24 1 1 2 12v11l-2-2-5-30z" fill="#191619"/>
<path transform="translate(556,647)" d="m0 0 2 1 2 8 1 14 2 14 2 7-1 4-3-8-2-15-2-16z" fill="#191619"/>
<path transform="translate(840,1333)" d="m0 0 1 2-7 8-9 8-14 9-8 4-2-1 8-5 12-7 13-11z" fill="#191619"/>
<path transform="translate(954,156)" d="m0 0h1l-1 15-1 7-1 17-1 7h-2v-11l2-16 1-13z" fill="#191619"/>
<path transform="translate(809,651)" d="m0 0 4 1-8 3-18 5-12 1 3-2 22-6z" fill="#FBFBFB"/>
<path transform="translate(1168,178)" d="m0 0h14l2 1h24v2h-44l1-2z" fill="#FBFBFB"/>
<path transform="translate(1007,1296)" d="m0 0 2 1-24 24-8 7h-2l2-4 13-12 8-7z" fill="#191619"/>
<path transform="translate(1268,70)" d="m0 0 4 1-22 12-11 5-2-1 4-3 11-6z" fill="#FBFBFB"/>
<path transform="translate(256,1105)" d="m0 0 7 4 9 9 5 6 6 5h-3l-10-8v-2h-2v-2l-4-2-9-9z" fill="#191619"/>
<path transform="translate(996,508)" d="m0 0 2 1-12 6-15 5-9 1 3-2 16-6z" fill="#FBFBFB"/>
<path transform="translate(788,613)" d="m0 0 4 1-13 5-12 2h-5l4-3 15-4z" fill="#FBFBFB"/>
<path transform="translate(1034,460)" d="m0 0 2 1-15 10-14 8-7 2v-2l16-8 11-7z" fill="#FBFBFB"/>
<path transform="translate(754,268)" d="m0 0h2l-1 38-2-3v-30z" fill="#191619"/>
<path transform="translate(612,1101)" d="m0 0 3 3 2 18v3h-2l-3-10-1-2v-10z" fill="#FBFBFB"/>
<path transform="translate(584,782)" d="m0 0 1 4-3 4-1 8-5 6-1-4 1-6 6-10z" fill="#E8E8E8"/>
<path transform="translate(653,749)" d="m0 0 2 1-15 8-18 8-2-1 16-9 12-5z" fill="#FBFBFB"/>
<path transform="translate(807,145)" d="m0 0h2l-2 11-5 15h-2l2-12 3-11z" fill="#FBFBFB"/>
<path transform="translate(702,788)" d="m0 0v3l-13 9-9 5-3-1 8-6 12-7z" fill="#191619"/>
<path transform="translate(626,559)" d="m0 0h1l1 5 1 14 2 9 1 7-1 6h-1l-2-9-2-21z" fill="#FBFBFB"/>
<path transform="translate(1070,317)" d="m0 0 3 1-8 3-21 5-8 1 2-2 19-5z" fill="#FBFBFB"/>
<path transform="translate(782,642)" d="m0 0h8l-3 2-19 4-9 1-2-2z" fill="#FBFBFB"/>
<path transform="translate(1030,392)" d="m0 0 3 1-9 4-6 2-16 2 2-2 19-5z" fill="#FBFBFB"/>
<path transform="translate(408,1058)" d="m0 0 1 2-4 7h-2l-2 5-7 10-3 5-2-1 5-9 8-11z" fill="#FBFBFB"/>
<path transform="translate(977,614)" d="m0 0 2 1-6 5h-2v2l-11 8-4-1 13-10z" fill="#FBFBFB"/>
<path transform="translate(1015,298)" d="m0 0h14v2l-16 2h-11l2-2z" fill="#FBFBFB"/>
<path transform="translate(385,1065)" d="m0 0 2 4-6 10-4 5-3 2 2-5z" fill="#242224"/>
<path transform="translate(1250,68)" d="m0 0v3l-3 5-8 9-4 1 1-4 11-10z" fill="#FBFBFB"/>
<path transform="translate(694,887)" d="m0 0 4 1-17 8-10 3 3-3 17-8z" fill="#FBFBFB"/>
<path transform="translate(1114,1408)" d="m0 0 1 3-14 8-9 4-2-1 8-5 14-7z" fill="#191619"/>
<path transform="translate(1354,13)" d="m0 0 4 1-6 5-16 1 2-2 14-3z" fill="#FBFBFB"/>
<path transform="translate(1053,1389)" d="m0 0 2 1-10 7-19 9-3-1 20-10z" fill="#191619"/>
<path transform="translate(1053,506)" d="m0 0v3l-11 8-9 5 2-4z" fill="#FBFBFB"/>
<path transform="translate(1227,126)" d="m0 0h16l7 1v2l-5 1-3-1-14-1z" fill="#FBFBFB"/>
<path transform="translate(1038,449)" d="m0 0h2v2l-10 7-9 5-2-1 11-8z" fill="#FBFBFB"/>
<path transform="translate(808,337)" d="m0 0 2 3 3 8 2 9-1 3-2-4-4-12z" fill="#191619"/>
<path transform="translate(416,926)" d="m0 0 4 1 7 4 4 6-1 2-11-9v-2l-3-1z" fill="#FBFBFB"/>
<path transform="translate(969,595)" d="m0 0 2 1-5 4-15 8-2-1 11-7z" fill="#FBFBFB"/>
<path transform="translate(1275,81)" d="m0 0 1 2-7 3-12 3-3-1 7-4 11-2z" fill="#FBFBFB"/>
<path transform="translate(416,956)" d="m0 0h10 3l1 3-5 1-8-1-2-2z" fill="#191619"/>
<path transform="translate(553,796)" d="m0 0h2l-2 6-6 9h-2l2-7z" fill="#FBFBFB"/>
<path transform="translate(502,872)" d="m0 0v3l-8 13-3 2 2-6 6-9z" fill="#FBFBFB"/>
<path transform="translate(605,825)" d="m0 0 3 1-17 7-6 3 1-3 10-5z" fill="#FBFBFB"/>
<path transform="translate(624,805)" d="m0 0 4 1-10 4-10 2 3-3z" fill="#FBFBFB"/>
<path transform="translate(429,756)" d="m0 0 2 2 1 6-2 14h-1l-1-20z" fill="#FBFBFB"/>
<path transform="translate(909,358)" d="m0 0 2 1-8 10h-2l-2 4h-3l8-10z" fill="#FBFBFB"/>
<path transform="translate(192,1297)" d="m0 0 9 1 8 2 2 3h-6l-7-3-6-2z" fill="#191619"/>
<path transform="translate(631,330)" d="m0 0 3 1-1 8-2 5-2 7-1-2v-7l1-5 2 1z" fill="#191619"/>
<path transform="translate(1199,35)" d="m0 0h2l-2 5-7 12-2 1 2-7z" fill="#191619"/>
<path transform="translate(686,1127)" d="m0 0 2 1-9 8-6 1 5-5z" fill="#FBFBFB"/>
<path transform="translate(420,916)" d="m0 0 5 1 3 4v2l-4-1-6-3v-2z" fill="#FBFBFB"/>
<path transform="translate(558,753)" d="m0 0h2l5 9 3 7-4-2-4-8z" fill="#FBFBFB"/>
<path transform="translate(692,754)" d="m0 0h10l-3 2-15 2 1-3z" fill="#FBFBFB"/>
<path transform="translate(613,518)" d="m0 0h1l2 18-3 4z" fill="#191619"/>
<path transform="translate(1014,53)" d="m0 0h1l-1 7-5 8-2 6-2-4 6-11z" fill="#FBFBFB"/>
<path transform="translate(886,571)" d="m0 0 3 1-10 4-10 2v-2z" fill="#191619"/>
<path transform="translate(688,479)" d="m0 0 2 1 3 13 1 5h-2l-3-8z" fill="#191619"/>
<path transform="translate(1076,377)" d="m0 0 4 1-8 5-6 3h-2l1-3z" fill="#FBFBFB"/>
<path transform="translate(1149,94)" d="m0 0h1v10l-4 10h-1l1-7z" fill="#FBFBFB"/>
<path transform="translate(284,1190)" d="m0 0 5 3 2 5-1 5-2-2v-3h-2z" fill="#FBFBFB"/>
<path transform="translate(373,1086)" d="m0 0 2 3-10 16-1-3z" fill="#1F1C1F"/>
<path transform="translate(701,856)" d="m0 0 2 1-11 6-7 2 4-4z" fill="#191619"/>
<path transform="translate(907,592)" d="m0 0h5l-3 2-7 3-12 2 2-2z" fill="#FBFBFB"/>
<path transform="translate(1030,1369)" d="m0 0 2 1-8 8-7 5-2-1 9-8z" fill="#191619"/>
<path transform="translate(628,1031)" d="m0 0h1v11l-3 6-1-3 2-6-2-6z" fill="#191619"/>
<path transform="translate(592,596)" d="m0 0h1l1 18-2-1-1-3v-8z" fill="#191619"/>
<path transform="translate(494,993)" d="m0 0 10 3 2 4-6-1-5-3z" fill="#FBFBFB"/>
<path transform="translate(1087,29)" d="m0 0 1 3-6 11h-2l2-6z" fill="#FBFBFB"/>
<path transform="translate(827,645)" d="m0 0h5l-4 3-9 2h-5l4-2z" fill="#FBFBFB"/>
<path transform="translate(461,890)" d="m0 0 2 1v12l-2 1-1-9z" fill="#FBFBFB"/>
<path transform="translate(1101,479)" d="m0 0h2l-2 5-5 6h-2l2-5z" fill="#FBFBFB"/>
<path transform="translate(493,1391)" d="m0 0 9 3 5 3-3 1-11-5z" fill="#FBFBFB"/>
<path transform="translate(642,1120)" d="m0 0h1v7l-3 6h-1l1-10z" fill="#191619"/>
<path transform="translate(839,945)" d="m0 0 1 3h2l4 7 3 4-4-2-5-6-2-1z" fill="#191619"/>
<path transform="translate(860,635)" d="m0 0h2l-2 4-4 2-6-2 2-2 7-1z" fill="#FBFBFB"/>
<path transform="translate(1203,58)" d="m0 0 1 2-8 11-2 1 1-5z" fill="#191619"/>
<path transform="translate(783,1392)" d="m0 0 4 1 1 3 4 1-1 2-7-3-2-1z" fill="#FBFBFB"/>
<path transform="translate(207,1105)" d="m0 0 6 2 9 6-2 1-13-7z" fill="#191619"/>
<path transform="translate(807,382)" d="m0 0 2 3 2 6v5l-3-1z" fill="#FBFBFB"/>
<path transform="translate(241,1290)" d="m0 0v3l-5 6-4 2 2-5z" fill="#FBFBFB"/>
<path transform="translate(257,1274)" d="m0 0h2l-2 4-3 8-2-1 1-6z" fill="#FBFBFB"/>
<path transform="translate(170,1189)" d="m0 0 2 3v6l1 3-5-1z" fill="#FBFBFB"/>
<path transform="translate(693,1131)" d="m0 0 2 3 7 4-4 1-2 1-2-4-3-3z" fill="#191619"/>
<path transform="translate(420,1054)" d="m0 0 1 4-2 5h-2v3h-2l1-6z" fill="#FBFBFB"/>
<path transform="translate(585,717)" d="m0 0 2 1 4 10v5h-2z" fill="#FBFBFB"/>
<path transform="translate(702,522)" d="m0 0 2 1 1 5v9l-2-3-1-5z" fill="#FBFBFB"/>
</svg>
