<svg xmlns="http://www.w3.org/2000/svg" fill="#fff" height="1000" width="1000" xmlns:v="https://vecta.io/nano"><path d="M793.9 62.5h-588c-19 0-34.4 15.8-34.4 35.4V902c0 19.5 15.4 35.4 34.4 35.4h588c19 0 34.4-15.8 34.4-35.4V98c-.1-19.6-15.5-35.5-34.4-35.5zM499 918.4c-10.7 0-19.3-8.9-19.3-19.9s8.7-19.9 19.3-19.9 19.3 8.9 19.3 19.9-8.6 19.9-19.3 19.9zm261.8-55H234.4V136.7h295.7v221.6c0 3.9 2.2 4.9 4.9 2.1l79.1-81.3c2.7-2.8 7.1-2.8 9.8 0l79.1 81.3c2.7 2.8 4.9 1.8 4.9-2.1V136.7h52.8l.1 726.7zm-57.1-393.1H296c-3.1 0-5.5 2.4-5.5 5.5V509c0 3.1 2.4 5.5 5.5 5.5h407.7c3.1 0 5.5-2.4 5.5-5.5v-33.2c0-3-2.5-5.5-5.5-5.5zm0 82.5H296c-3.1 0-5.5 2.4-5.5 5.5v33.2c0 3.1 2.4 5.5 5.5 5.5h407.7c3.1 0 5.5-2.4 5.5-5.5v-33.2c0-3.1-2.5-5.5-5.5-5.5zm0 85.4H296c-3.1 0-5.5 2.4-5.5 5.5v33.2c0 3.1 2.4 5.5 5.5 5.5h407.7c3.1 0 5.5-2.4 5.5-5.5v-33.2c0-2.9-2.5-5.5-5.5-5.5zm0 82.5H296c-3.1 0-5.5 2.4-5.5 5.5v33.2c0 3.1 2.4 5.5 5.5 5.5h407.7c3.1 0 5.5-2.4 5.5-5.5v-33.2c0-3.1-2.5-5.5-5.5-5.5z"/></svg>