<svg xmlns="http://www.w3.org/2000/svg" fill="#fff" height="1000" width="1000" xmlns:v="https://vecta.io/nano"><path d="M475.5 417.8l.5-288.6c.5-31.3-8.8-52.9-35.1-66.8H116c-20.4 14.2-33.9 31.7-33.7 59.7l.4 297.4c.2 36.4 18.5 54.7 53.1 54.8h286.4c36.2 0 53.3-18.5 53.3-56.5zm-94.2-297c21.4-1 38.8 17.2 39.1 40.6.4 22.4-15.8 39.4-37.5 39.6-20.8.3-38.2-17.2-38.8-39-.5-20.8 17.1-40.3 37.2-41.2zM214.4 378.6c-.9 21.9-18 38.5-39.1 38-20.6-.5-37.8-19-37.5-40.2.3-21.4 20-40.8 40.8-40 19.5.8 36.7 20.9 35.8 42.2zm-37.2-177.4c-21.2.1-39.2-17.3-39.6-38.3-.4-22.2 17.7-41.7 39-42 20-.3 37.5 18.4 37.8 40.3.3 22.1-16.1 39.8-37.2 40zm102.1 107.6c-20 .2-38.2-18.4-38.6-39.2-.4-21.2 19.6-41.8 39.8-41 20.7.8 36.8 18.9 36.8 41-.2 22.1-16.6 39-38 39.2zm141.1 70.9c-.8 21.4-18.4 37.7-39.9 37-20-.7-37-20-36.3-41.2.7-20.7 19.6-39.5 39.3-39.1 20.9.4 37.7 20.2 36.9 43.3zm477.5 245.9L695.4 414c-22.3-23.4-50.7-24.2-73.3-.4L414.5 632.4c-9 9.5-13.3 20.9-13 38.6-1.1 11.9 6.4 24.3 16.8 35.2l111.8 116.6 90.5 94.9c26.3 27 51.5 26 77.6-1.2l199.9-207.6c25.9-26.7 26.3-55.8-.2-83.3zm-383.6 81.5c-22.8.3-39.6-18.3-39-43.1.5-20.3 17.7-37.6 37.3-37.7 21.8-.1 39.6 18.2 39.6 40.6-.2 21.4-17.6 40-37.9 40.2zm144.7 0c-21.8 0-38.9-18.6-38.2-41.7.6-22.1 17.3-39.2 38.5-39.1 21.3.1 37.8 17.2 38.2 39.4.4 23.4-16.4 41.4-38.5 41.4zm-38.4-194.8c.6-21.1 18.6-38.7 39.1-38.3 21.9.4 38.2 18.5 37.8 41.9-.4 21.2-18.3 39.1-38.8 38.8-20.8-.5-38.7-20.3-38.1-42.4zm76.9 308c-.6 22.1-17.3 38.9-38.3 38.9-22-.1-38.7-17.9-38.4-41 .3-21.5 19.8-40.3 40.6-39.2 20.3 1 36.7 19.8 36.1 41.3zm108.2-113.2c-21.8.4-39.3-17.9-39.1-40.9.2-22.1 17.1-40 37.6-39.9 22 .1 39.1 18 39 40.9 0 22.2-16.4 39.5-37.5 39.9z"/></svg>