<svg xmlns="http://www.w3.org/2000/svg" fill="#fff" height="1000" width="1000" xmlns:v="https://vecta.io/nano"><path d="M996.9 317.2c7.3-6.7.5-17.4-7.9-17.9l-91.1-5.5L952.7 160c4.4-10.9-7.8-20.8-17-12.3l-104 95.3c-2 1.8-4.4 3.5-6.5 4.9-4.1-4.4-10.3-9.6-11.8-11.8-11.8-18.3-31.7-34.7-46.6-50.9-5.2-5.6-16.5-2.6-17.6 5.2l-6.8 46c-2.8 18.7-12.9 39-.5 38.3-24.1 2.6-74.1-21.6-95.9-27.4-10.7-2.9-16.6 10.5-9.8 17.9l53.8 58.7c9.2 10 23.8-5.3 14.6-15.3l-28.7-31.4 67.5 18c5.2 1.4 12-2.2 12.8-7.8l10.5-71 50.5 55.1c4.1 4.5 11 3.4 15-.3l83.5-76.5-42.5 103.8c-3.1 7.6 1.1 15.1 9.6 15.6l80.9 4.8-66.1 60.6c-4.3 4-3.4 11.1.3 15l42.7 44.1-46.6-15.4c-12.9-4.3-17.8 16.4-4.9 20.6l86.5 28.6c10.6 3.5 16.6-10.9 9.8-17.9L949 416.8c-12.9-13.4-27.1-39.3-33.1-27.6 10.3-23 63.5-56 81-72zm-76.3 508c-20.5.6-41-.3-61.5.4-10.5.4-14-1.8-14-13.4l.5-415.6c0-32.8-7.5-40.1-40.7-40.1h-600c-27.8 0-55.6-.3-83.4.2-20 .4-30 11.3-30.2 31.4v64.4l.3 358.5c0 11.2-2.4 15.3-14.3 14.7-21-1.1-42 .7-62.9-.6C.4 824.2.6 831 .1 841.4c-.7 12.4 4.4 14.4 15.2 14.3l452.2-.1 453.7.2c13.3 0 15.9-4 16.2-16.4.4-14.1-6.4-14.4-16.8-14.2zm-133-393.1l-17.9-17.4c19.8-3.6 19.8-3.6 17.9 17.4zm-15.2 4.2c6.9 7.4 18.7 12.3 16 25.7 2.2 13-8.7 17.8-15.5 24.8-16.9 17.8-17.3 17.6-34 1-8.2-8.3-21.4-16.2-22.6-25.5-1.2-10 14-17 21.8-25.5 16.6-18.4 17.2-18.4 34.3-.5zm16.2 54v45.9c-29.6-27.8-29.4-19.7 0-45.9zm-44.3-77l-37.2 36.9c-2.9 2.8-5.4.3-7.5-1.7l-36-35.2h80.7zm-91.4 7.3c1.9 1.2 3.6 2.1 4.9 3.4l34.1 34.1c4.4 4.3 1 6.7-1.8 9.5l-30.9 31.1c-4.1 4.3-7.1 5.4-11.7.4-10.4-11-21.1-21.6-31.9-32.1-3.4-3.4-4.2-6-.4-9.7L648 424c1.3-1.3 3-2.1 4.9-3.4zm-11.7-6.8l-35.5 36c-2.5 2.5-5.4 1.7-7.8-.5L561 413.8h80.2zm-88.7 7.7c1.1 1 2.9 2.5 4.5 4.1l17.5 17.4c18.7 19.1 18.7 19.1-.5 38.5-23 23.2-23 23.2-46.4-.5-19-19.2-19-19.2.2-38.4l16.5-16.5c2-2 3.6-4.7 8.2-4.6zm-88.7-7.7h70.4l2.2 3-33.5 31.4c-4.3 4.2-6.7 1.4-9.6-1.4l-31.7-29.7 2.2-3.4zm-102.1-.5h71.4c-10 14.1-22.2 24.1-33.2 35.1-2.4 2.5-4.6 2.7-7.4.1l-34-31 3.2-4.2zm-12.1 9.5l35.1 35c.6.7 1 1.6 2 3.3-1.6 1.9-3.3 4.1-5.2 6l-30.9 31c-3.6 3.8-6.3 4.9-10.5.4-10-10.5-20.5-20.7-31-30.8-4.4-4.3-4.7-7.7-.1-12.1l32.1-31.8c2.7-2.7 5.2-4.4 8.5-1zm-90.1-9.2h74.4l-35.5 35.7c-3.1 3.1-5.8 1.6-8.7-1.2-10.8-10.4-21.9-20.4-32.9-30.6l2.7-3.9zm-5.1 15.2c5.3 6.9 12.2 12.5 18.3 18.7 13.6 13.9 13.6 13.9.4 27.1l-22.8 22.5c-2 2-4.4 3.6-7 5.7-3.4-3.1-6.3-5.5-9-8.2-10.4-10.8-28-21-29.1-32.6-1.1-12.2 18.9-21.2 28.2-32.8 7.6-9.5 13.2-10.5 21-.4zm-26.1-14.9l3 3.7-34 30.8c-3.1 2.9-5.7 3-8.7 0-11.1-10.6-22.9-20.6-33.4-34.5h73.1zm-79.6 16.6c2 .9 3.1 1 3.8 1.6 34.2 30.5 34.2 32.7-3.8 63.1v-64.7zm-.6 306.2l4.2-3.5 26.3 30c4.2 4.5 2.6 6.9-1.2 10.6-9 8.7-17.5 18-29.3 30.2v-67.3zm78.1 88.4c-25.5.5-51 .2-80.7.2l42.9-43.8c4.1-4.2 7-1.5 9.8 1.3l31.7 32.2c6.4 6.4 3.2 9.9-3.7 10.1zm16.6-14.8l-4.2-4c-1.4-1.3-2.9-2.6-4.2-4.1-10.2-11.5-31.3-22-29.3-33.6 2.4-13.5 21-24 32.4-36.1 4.2-4.4 7.5-5 12-.3 10.1 10.6 20.5 20.9 30.8 31.3 2.6 2.7 6.3 5.3 2 9.6L246.9 808c-1 1-2.5 1.4-4.1 2.3zm92.3 11.5c-1.4 2.7-4.2 3.6-7.5 3.6l-32.1-.1c-10.7 0-21.4-.1-32.2 0-3.6.1-7.1-.5-8.8-3.8-1.6-3.3 1.7-5.2 3.6-7.2l30.9-31.1c3.7-3.8 6.2-5 10.5-.5 10.5 10.9 21.5 21.3 32.2 31.9 2 2 5.2 3.9 3.4 7.2zm-25.5-46.4c-2.7-2.6-6.9-5.4-2.7-9.6l37.6-36.6c.8-.8 2.8-.2 4.3-.3 10.5 11 20.6 22.6 31.8 32.9 6.9 6.4 6.5 10.9-.4 16-.4.3-.7.7-1.1 1L346.5 810c-13.8-9.9-24.8-22.9-36.9-34.6zm126.8 47.1c-1.5 3.2-4.8 2.8-7.7 2.8h-32.1-32.2c-3.1.1-6.1-.5-7.6-3.4-1.7-3.3 1.2-5.3 3.2-7.3l31.9-32.1c3.5-3.5 6-3.3 9.5.3 10.5 11 21.3 21.5 31.9 32.2 2 2 4.7 4.1 3.1 7.5zm102.3-.2c-1.5 2.9-4.6 3.1-7.6 3.1-11.2-.1-22.4 0-33.5 0h-32.1c-3.1 0-6.1-.8-7.2-3.8-1-2.7 1.6-4.3 3.2-6l32.9-33.2c3.6-3.8 5.8-3.1 9.3.5 10.4 10.9 21.3 21.3 31.9 32 2 2 4.8 4.1 3.1 7.4zm5.7-17.3c-11-12.7-33.2-23.2-31.7-37.1 1.4-13.2 21.5-24.4 33.2-36.7 3.1-3.1 5.6-5.4 9.5-1.4l35.1 35c1 .9 1.4 2.4 2.3 4-1.6 1.8-3.1 3.7-4.8 5.4-10.3 10.3-21 20.2-30.9 30.9-4.9 5.4-8.2 5-12.7-.1zm98 16.2c-1.7 4.3-6 4.2-10 4.1-10.1-.1-20.3 0-30.5 0l-32 .1c-3.6 0-6.9-.9-8.2-4.6-1.2-3.5 2.1-5.1 4-7.1l29.6-30c5.1-5.4 8.8-5.5 14 .2 9.1 10 19.1 19.2 28.5 29 2.2 2.2 6.1 4.3 4.6 8.3zm5.3-15.5l-31-30.7c-5-4.8-4.7-8.5.3-13.2 10-9.3 19.7-18.8 29-28.7 5-5.3 8.6-6.3 14-.4 9.2 9.9 19.3 19.1 28.9 28.7 2 2 3.7 4.4 5.4 6.3-.6 1.5-.7 2.7-1.3 3.3l-38.2 37.9c-2.7 2.6-5.2-1.3-7.1-3.2zm96.7 15.5c-1.6 3.6-4.9 4.2-8.6 4.1-10.7-.1-21.4 0-32.1 0l-32.2.1c-3.2 0-6.1-1.3-7.5-3.7-2-3.4 1.5-5.2 3.4-7.1l30.7-31.4c4.1-4.3 7.4-5.2 12-.5 10.1 10.6 20.6 20.7 30.8 31.2 1.9 1.9 4.9 3.9 3.5 7.3zm44.1-7.4c-.3 10.7-9.6 15.7-19.1 10.3-4.7-2.6-4.6-5.5-.8-8.9 1.4-1.2 2.7-2.6 4-4.1l12.2-13.6 3.7 2v14.3zM770 796.1c-16.3 16.6-12.3 17.9-29.3 0-8.8-9.3-25.6-16.6-23.8-28.8 1.5-10.2 15.9-18.5 24.8-27.5 13.5-13.5 14-13.8 26.9 0 7.9 8.4 20.6 14 20.1 30.4 1.5 12.6-10.9 18.1-18.7 25.9zm9-110.9c-6.5 6.2-10.6 12.5-7.5 22.3 6.5-1.1 8.9-8 15.7-11.6 2.4 14.2 1 27.9 1.1 43.2-8-3.1-11.7-9.5-16.7-14.2-10.6-10-21.3-10.3-31.7-.3-8.8 8.4-17.9 16.6-25.8 25.8-7 8-11.9 9.5-19.3.3-7.3-9-16.3-16.7-24.6-24.9-11.5-11.4-22.2-11.4-33.8 0-9 8.9-18.2 17.7-26.8 27-5.5 5.9-9.5 6.6-15.3.1-8.8-9.8-18.4-18.7-27.7-28-9.3-9.2-21.2-9.7-30.6-.8-9.2 8.8-18.4 17.5-26.8 27-7.3 8.4-13 7.9-19.5-.6-2.9-3.9-6.6-7.2-10.3-10.3-4.5-4-8.7 0-11.5 2.3-4.2 3.5 1.2 5.7 3.1 7.8 18.4 20.3 18.4 20.3-1.1 39.7-22.2 22.2-22.2 22.2-44.8-.6l-1-1c-17.5-17.7-17.5-17.7-2.8-37.2-7-2.4-13.2-3.2-18 3.3-5 6.7-9.3 5.1-13.7-.4-10.7-13.4-26.4-18.7-41.1-25.6-6.3-9.8-12.2-10.5-20.9-1.1-10.5 11.1-20.5 30.3-33.5 29.4-11.5-.7-21.9-18.8-32.7-29.3-13.7-13.6-24.7-13.5-38.1.2-8.2 8.4-16.8 16.3-24.7 24.9-4.9 5.5-8.4 6.6-13.9.4-9.4-10.5-19.5-20.5-29.8-30.2-4.6-4.4-4.9-7.3-.1-11.7 8.2-7.6 15.7-15.9 23.9-23.6 4.8-4.5 4-8.9.1-12.5-4.5-4.4-6.5 1.5-8.8 3.7-6.5 6.5-12.6 13.4-21.4 23v-66.5c9.1 1.5 11.5 12.2 19.5 15.4-.5-16.5-.2-16.8-10.8-26.6-6.6-6.1-9.3-10.7-.4-16.8 12.4-8.4 15.9-22.3 18.3-37.9l-22.4 29.2-4.5-3.6v-61.2l4.7-4.1 23.8 28.6c2.2 2.6 4.6 7.3 9.3 2.5 4.1-4.1 3-7.2-.9-11-9.8-9.4-19.1-19.5-29-28.9-4.5-4.3-6.8-7.6-1.2-12.9 10.6-10.1 21-20.4 31-31.1 5.2-5.6 8.1-3.8 12.5 1.1 8.1 9 16.7 17.8 26 25.7 8.4 7.1 9 12.9-.2 19.3-4 2.8-8 5.6-10.5 10.7 16.3-3.2 30.4-12.1 48.4-8.4-12.5-10.5-7.6-17.5 1.5-24.6 4.9-3.8 8.9-8.9 13.4-13.3 18.1-17.9 18.2-17.8 35.6-.1 1.4 1.4 2.7 2.8 4 4.2 18.9 19.6 18.9 19.6.8 39.5-2.2 2.5-7.2 4.5-1.8 9.1 4 3.4 6.4 3.7 10.6-.5l61.6-61.7c6.6-7 10.4-7 17.2-.3 8.4 8.2 14.8 21.7 35.1 15.5l-28.5-25.7c-5.4-4.6-5.3-8.3-.2-13.1 10.2-9.7 20.2-19.7 29.9-29.9 4.2-4.4 7.1-5.1 11.6-.3 10.1 10.6 20.5 20.9 31.3 30.7 5.7 5.2 4.2 8.4-.7 12.6l-32 28.4c10.5 8.3 16 6.9 22.8.5 8.6-8 15.1-23.9 26.2-22.3 9.4 1.3 17 14.8 25.4 22.9.8.7 1.5 1.4 2.2 2.1 14 14 14 14 0 28.3-2.4 2.4-4.6 5-7.1 7.3-3.5 3.3-1.9 5.9.6 8.7 2.7 2.8 5.1 1.9 7.5-.3.4-.3.8-.6 1.1-1 10-13.3 21.7-22.2 40.9-12.7-9.7-17.8-9.9-18 3.5-31.4 8.8-9 16.9-24.5 27.5-24.2 9 .2 17.6 15.1 26.4 23.5.7.6 1.3 1.4 2.1 2 10.4 7.9 16.9 16.2 1.7 27.8 14.4-1.4 27.2-1.5 44.8 1.5-18.4-13-12.5-21.2-1.4-29.8 6.9-5.3 13.1-11.9 18.5-18.7 7.4-9.5 13.4-8.2 20.2.4 3 3.8 6.7 7.1 10.1 10.6 22.2 22.4 22.2 22.4-.7 45.2C712 548 712 548 717.2 563.8l30.5-34.7c4.9-5.6 9.1-7.4 15-.6 6.6 7.7 14.9 14 21.5 21.7 7 8.3 6.3 17.8.8 26.9-.5.8-1.3 1.5-2 2.1-9.7 8.2-16.7 24.4-27.5 24.3-8.9-.1-17.5-15-26.5-23-4.9-4.4-8.5-10.5-15.3-13.3-3.7 7.6-.6 13.4 4.1 18.5 6 6.5 12.2 12.7 18.3 19 1.7 1.7 4.7 3.3 4.9 5.2 2.4 21.2 19.3 11.1 30 14.2-2 9.7 1 17.1 8.4 24.1 13.6 12.8 13.2 24-.4 37zm9.4-48.9c-8.4-1.6-10.9-9.9-17.3-12.5-5.4-5.7-7-10.8.9-17 4.8-3.7 7.7-9.8 13.2-13.8 4.7 14.9 2.7 28.6 3.2 43.3zM424.2 532.9c-49.8-.6-91.2 38.9-92.4 88.2-1.2 48.9 39.5 90.7 89 91.5s91.1-39.5 91.6-88.8c.5-48.6-40-90.3-88.2-90.9zm1.3 13.2c1.1-4.9 5.1-3.3 8.3-2.9 16.8 2.4 31.1 9.8 45.6 23.1-20 1.1-35.3-3.6-49-13.9-2.2-1.7-5.8-2.5-4.9-6.3zm11 48.2c6.8 10.6 14 21.6 17.3 33.4 3.2 11.2-16.7 24.6-33.8 24.7-14.6.1-32.3-15.1-32.2-27.7 0-11.1 20.5-33.7 30.9-33.2 6 .3 13.9-3.1 17.8 2.8zm-24.9-51.5c2.7-.6 6.2-.8 7.2 3 1.1 3.9-2.3 4.8-4.7 6.1-13.7 7.2-27.4 14.6-46 12.2 12.9-13.2 27.8-18.3 43.5-21.3zM380.7 569c12-2.1 23.3 9.6 18.8 21.6-4 10.7-11.1 20.3-17.3 30.1-2.7 4.3-8 2.4-14.3 3.4-4.7 1.5-7.2-3-9.8-8.1-12.2-24.3-3.7-42.3 22.6-47zm-34.3 80.7c-5.5-14.5-4.8-29.3-2.5-47.7 11.5 15.7 15.5 29.9 13.8 45.8-.3 3.6-.3 7-4.6 7.9-4.8 1-5.5-3.1-6.7-6zm9.3 18c-1.2-1.9-3.3-3.9-.3-6.1 2.4-1.9 4.7-2.5 7.8-.8 14.6 8.1 27.8 17.4 33.3 37.2-18.8-5.4-31-16.2-40.8-30.3zm35.3 5.1c-.2-7.6 6-14 14.4-15.4 4.8-.8 9.7-.2 16.9-.2 4.8.6 12.8-2.5 18.9 2.6 4.9 4.1 13.2 9.7 10.5 15.7-4.2 9.4-11.2 18.8-21.4 22.7-16.1 6.1-39.1-8.5-39.3-25.4zm94.9-1.2c-10.9 14.4-25.1 23.8-45.6 29.5 10.6-17.6 23.7-28.1 38.5-37 3.2-1.9 5.8-3.5 8.8 0 2.9 3.4-.1 5.4-1.7 7.5zm10.6-18.6c-1.1 2.5-1.2 6.3-5.2 5.9-4.4-.4-4.5-4-4.9-7.5-1.8-16.7 3.6-31.3 13.7-49 3.2 20 3 35.6-3.6 50.6zm-13-29.2c-1.7 4.9-6.8 1.9-9.1 2.7-9 .2-15.2-2-18.9-9.8-3.7-7.9-9.1-15-12.3-23-5-12.4 4.3-22.7 17.9-23.1 17.5-.5 25.1 10.4 30.7 23.7 4.9 11.5-5 19.8-8.3 29.5zm-196.9-5.3c-4.8 0-9.8.4-14.6-.1-10-1-11.3 4.8-10.6 12.6 1 11.9 10.1 5.4 15.7 7.1 3.6 1.1 9.6-2.8 10.7 3.9 1 5.7 1 10.9-5.7 14.9-22.2 13.2-46.9 3.7-52.4-21.4-2.3-10.5-1.9-21.2 1.2-31.8 3.4-11.7 11.5-17.7 22.8-20 11.7-2.3 23.3-1.1 29.9 9.9 7.3 12.1 17.5 7.1 23.7 2.8 6.7-4.7-1.1-12.2-4.6-16.9-20.3-27.4-77.8-20.1-92.2 12.6-10.2 23.3-9.5 47.8 5.7 69.7 14.4 20.8 36.6 22.6 59 19.9 29-3.6 36.5-12.4 36.6-39.1 0-24.2 0-24.2-25.2-24.1zm307.6-40.9c-3-7.5-5.7-15.1-16.6-12.3-5.1 1.4-12.3-3.6-15.7 5.5l-39.7 101.6c-1.3 3.3-2.1 7.7 3.1 7.6 8.8-.3 20.4 4.4 22.7-10.4 2-12.6 9.7-15.4 21.7-15.2 17 .2 33.4-3 38.6 21 1.8 8.7 15.2 6 21.9 3.7 7-2.5.2-9.2-1.4-13.5l-34.6-88zm-5 55.8c-6.8 4.1-16 2.3-24 .9-4.8-.9-2.6-5.7-1.6-8.5 3.6-10 7.6-19.8 12.6-32.7 4 10.7 7.3 18.2 9.7 26 1.6 4.8 7.3 11.8 3.3 14.3zm135.3 27.7c-12.2.3-24.4-.4-36.5.3-9.9.5-13.8-2.3-13.5-13 .7-24.3-.3-48.6.2-73 .1-8.6-3.1-10.6-11-10.4-7.6.2-13.2.2-12.7 10.5.7 15.6.2 31.2.2 46.8l-.1 48.2c-.1 6.6 2.2 9.7 9.3 9.6l64.2.1c8.1.1 7.9-4.7 8.1-10.4.3-6.2-1.8-8.9-8.2-8.7z"/></svg>