<svg xmlns="http://www.w3.org/2000/svg" fill="#fff" height="1000" width="1000" xmlns:v="https://vecta.io/nano"><path d="M502.2 778.3c214.8 0 389.5-174.2 389.5-389.1C891.7 174.2 717.1 0 502.2 0s-389 174.2-389 389.3c0 214.8 174.2 389 389 389zm0-648.8c143.4 0 259.6 116 259.6 259.6S645.6 648.6 502.2 648.6s-259.8-116-259.8-259.4c.1-143.7 116.5-259.7 259.8-259.7zm0 393.2c73.6 0 133.6-59.8 133.6-133.4-.2-74-60-133.4-133.6-133.4s-133.4 59.6-133.4 133.4c0 73.6 59.8 133.4 133.4 133.4zM224.7 853.3H107.3v26.4h43v116.8h31.4V879.7h43zm40.6 0L211 996.5h31.8l11.3-31.8h53.5l10.7 31.8h32.6l-53.5-143.2h-32.1zm-3.1 87.7l18.8-52.5h.4l18 52.5h-37.2zm197.7-11.7v-.6c15.8-6.4 22.7-18.9 22.7-35.9 0-21.7-16.2-39.5-42-39.5h-77v143.2H395v-55.9h31.4c15.8 0 21.7 6.6 23.8 21.7 1.6 11.5 1.2 25.2 5.1 34.4h31.4c-5.7-8-5.5-24.8-6.1-34-.8-14.5-5.3-29.5-20.7-33.4zm-30.1-11.1h-34.6v-40.4h34.6c14.1 0 21.7 6.1 21.7 19.9 0 14.4-7.7 20.5-21.7 20.5zm141.4 24.4h31.6c-2 19.9-13.7 30.9-34.2 30.9-28.3 0-38.9-24-38.9-47.9 0-25 10.5-49 38.9-49 14.8 0 26.6 8.2 30.3 24H629c-3.3-32.6-31.1-50.6-60.4-50.6-44.1 0-70.3 33-70.3 75.6 0 41.2 26 74.4 70.3 74.4 13.9 0 28.1-5.5 39.3-19.7l3.1 16.2h20.1v-77.3h-60v23.4zm112.9-7.6h69.3v-24.6h-69.3v-30.7h75.6v-26.4H652.6v143.2h108.6v-26.6h-77.1zm91.2-81.7v26.4h43v116.8h31.4V879.7h43v-26.4z"/></svg>