<svg xmlns="http://www.w3.org/2000/svg" fill="#fff" height="1000" width="1000" xmlns:v="https://vecta.io/nano"><path d="M884.9 687.8c-32.8-16.3-65.5-14.4-96.4 5.8-4.6 2.9-7.7 3.2-12.6.5-43.3-24.3-82.5-54-118-88.8-1.7-1.6-2.7-3.1-3.1-4.8 3.9-10.4 6-21.7 6-33.5 0-39.7-23.8-73.9-58-89-.6-1.4-.9-3.2-.9-5.4-.1-49.5 6.1-98 18.9-145.8.9-3.3 2.2-4.9 5.2-6l.6-.1c30.1-6.3 53.4-25.7 65.8-51.1l.4-.9c.9-1.9 1.7-3.8 2.5-5.8l1.3-3.3 1.2-3.9 1.5-5.2.6-2.7c.5-2.1.9-4.2 1.2-6.4l.3-2.4c.3-2.1.5-4.2.6-6.4.1-1.2.1-2.3.1-3.5V224c-.1-2-.2-4.1-.4-6.1-.1-.7-.1-1.4-.2-2l-.3-3.2c-2-14-7-26.8-14.1-37.9l-.4-.6c-.6-1-1.3-1.9-1.9-2.8l-1.6-2.3c-.3-.4-.6-.7-.8-1.1-5.1-6.6-11-12.5-17.6-17.5l-.7-.5c-1-.8-2-1.5-3.1-2.2-.8-.6-1.7-1.1-2.6-1.7l-1.3-.9c-14.4-9-31.1-14.1-48.5-14.5H605c-1 0-2 0-3 .1h-.8c-15.8.8-31.6 5.5-45.8 14.7-6 3.7-11.4 8-16.3 12.8-1.1 1-2.1 2.1-3.1 3.1l-.1.1c-18.2 18.9-27.1 42.9-25.2 71.3l.1.9v.6c.2 4.7-1 7-5.1 9.4-42.5 24.3-87.4 42.7-134.8 55.1-5 1.3-7.5.2-10.5-3.6-41.7-51.8-121.7-46.7-156.6 9.9-24.1 39-16.8 90.3 17.4 121 4.1 3.7 5 6.7 3.7 12.1-12.4 47.9-30.7 93.3-55.1 136.3-1.9 3.3-3.7 4.6-7.6 4.6-7.3 0-14.8.2-21.9 1.6-51.1 10.2-83.5 56.5-76.3 108.6 8 58.6 69.9 96.5 125.8 76.5 34.2-12.2 56.3-36.7 63.1-72.5 7.1-37.7-5-69.6-35.1-93.9-3.8-3-4.4-5.5-3.2-10.1 11.2-43.7 27.3-85.4 48.5-125.2 5-9.4 9.4-17 19.7-13 54 2.8 102.3-44.2 98.6-99-.3-4.4 1.3-6.6 5.1-8.8 43.1-24.7 88.5-43.5 136.6-56.1 3.8-1 6.4-.8 8.8.8 4.8 5.7 10.4 10.9 16.8 15.5 7.3 5.8 15 10.3 23.1 13.5 1.8 1.6 2.4 3.7 2.4 7 .2 45.1-4.8 89.5-15.4 133.4-1.2 5.1-2.4 9.7-4.6 12.9-10.2 1-20 3.6-29 7.6-34.4 14.9-58.5 49.3-58.5 89.2 0 12 2.2 23.5 6.2 34.1 6.2 16.6 16.9 31.1 30.6 42 14 11.1 31.2 18.4 49.9 20.4l2.1.2 2.7.3c.5 0 1 0 1.6.1 1.4.1 2.8.2 4.3.2l2.8-.1 1.2-.1c.8 0 1.7-.1 2.5-.2l4.7-.3a94.86 94.86 0 0 0 32.7-9.8l.3-.2c2-1 4-2.1 5.9-3.3 3.2-1.9 6.3-4 9.3-6.4l.7-.6h.1c2.5-1.1 4.8-.8 8 1 42.7 24 81.4 53.2 116.5 87.4 3.4 3.3 4 5.9 2.6 10.4-13.6 44 .8 86.7 37.3 111.3 49.7 33.6 118.3 13.1 141.6-42.2 19.2-47.5.5-100.7-45.4-123.5z"/></svg>