<?xml version="1.0" standalone="no"?>
<!DOCTYPE svg PUBLIC "-//W3C//DTD SVG 20010904//EN"
 "http://www.w3.org/TR/2001/REC-SVG-20010904/DTD/svg10.dtd">
<svg version="1.0" xmlns="http://www.w3.org/2000/svg"
 width="300.000000pt" height="300.000000pt" viewBox="0 0 300.000000 300.000000"
 preserveAspectRatio="xMidYMid meet">
<metadata>
Created by potrace 1.14, written by Peter Selinger 2001-2017
</metadata>
<g transform="translate(0.000000,300.000000) scale(0.100000,-0.100000)"
fill="#000000" stroke="none">
<path d="M508 2761 l-3 -166 -45 5 c-86 9 -276 4 -353 -9 l-77 -14 0 -964 c0
-914 1 -964 18 -959 101 29 329 35 468 11 272 -47 597 -211 839 -425 44 -38
83 -70 87 -70 5 0 8 427 8 950 l0 949 -55 91 c-276 456 -567 723 -824 758
l-61 9 -2 -166z m35 -1748 c-7 -2 -21 -2 -30 0 -10 3 -4 5 12 5 17 0 24 -2 18
-5z"/>
<path d="M2445 2924 c-11 -2 -45 -9 -75 -15 -230 -46 -529 -329 -760 -719
l-70 -119 0 -951 c0 -749 3 -949 13 -943 6 4 44 34 82 68 253 219 555 372 829
420 139 24 367 18 469 -11 16 -5 17 45 17 958 l0 964 -60 12 c-84 18 -273 25
-347 14 l-63 -9 0 169 c0 92 -3 167 -7 167 -5 -1 -17 -3 -28 -5z m28 -1911
c-7 -2 -19 -2 -25 0 -7 3 -2 5 12 5 14 0 19 -2 13 -5z m-76 -9 c-3 -3 -12 -4
-19 -1 -8 3 -5 6 6 6 11 1 17 -2 13 -5z m-347 -178 c0 -2 -8 -10 -17 -17 -16
-13 -17 -12 -4 4 13 16 21 21 21 13z m-170 -170 c0 -2 -8 -10 -17 -17 -16 -13
-17 -12 -4 4 13 16 21 21 21 13z"/>
</g>
</svg>
